<?xml version="1.0" encoding="UTF-8"?>
<svg version="1.1" xmlns="http://www.w3.org/2000/svg" width="1563" height="756">
<path d="M0 0 C9.90785716 31.59841684 19.78293533 63.20626624 29.50656891 94.86191559 C30.53892074 98.22237304 31.57197643 101.58261409 32.60498047 104.94287109 C33.01769243 106.28546069 33.43040198 107.62805102 33.84310913 108.97064209 C34.04709698 109.63423485 34.25108482 110.29782761 34.46125412 110.98152924 C35.28070877 113.64730958 36.10014851 116.31309451 36.91958046 118.97888184 C37.32867586 120.3097367 37.73778307 121.64058794 38.14690208 122.97143555 C39.18535067 126.34950989 40.22359967 129.72764536 41.26147461 133.105896 C43.53957848 140.52029289 45.82089101 147.93368128 48.11017418 155.34463501 C49.07600633 158.47155896 50.03971499 161.59910825 51.00006104 164.72772217 C59.63583367 199.46066184 59.63583367 199.46066184 81.25 225.875 C86.13370705 227.34011211 90.96471277 228.19186748 96 229 C96 232.96 96 236.92 96 241 C94.54968384 240.89389404 94.54968384 240.89389404 93.07006836 240.78564453 C81.86795403 240.01864355 70.70628759 239.84512814 59.48022461 239.86962891 C56.56944559 239.87498721 53.65882125 239.86964788 50.74804688 239.86328125 C39.1314325 239.85959753 27.58982078 240.20988721 16 241 C15.90234375 232.50390625 15.90234375 232.50390625 16 230 C19.01675502 226.98324498 27.91702046 228.02241614 32.01953125 227.9375 C34.34734686 227.9375 36.67257676 227.96278449 39 228 C38.71809814 227.12633789 38.43619629 226.25267578 38.14575195 225.35253906 C34.50766508 213.95663251 31.25602826 202.46118807 28.06860352 190.93212891 C27.17705112 187.71226358 26.27713176 184.49480669 25.37695312 181.27734375 C24.80678453 179.22149475 24.23710459 177.16551015 23.66796875 175.109375 C23.39929489 174.15214539 23.13062103 173.19491577 22.85380554 172.2086792 C22.60967422 171.31964905 22.36554291 170.4306189 22.11401367 169.51464844 C21.7902198 168.3479361 21.7902198 168.3479361 21.45988464 167.15765381 C21 165 21 165 21 161 C-4.70872857 161.46788098 -30.34106156 162.30990501 -56 164 C-56.11029541 164.8355542 -56.22059082 165.6711084 -56.33422852 166.53198242 C-57.06815578 170.35502486 -58.27850851 173.86211345 -59.65234375 177.48828125 C-59.91253799 178.19091599 -60.17273224 178.89355072 -60.44081116 179.61747742 C-61.5447831 182.59854269 -62.66094469 185.57499238 -63.77709961 188.55151367 C-70.42584721 204.36606608 -70.42584721 204.36606608 -70 221 C-66.98208322 225.29824512 -64.03055829 226.66446924 -59.0703125 227.6640625 C-58.38710938 227.77492188 -57.70390625 227.88578125 -57 228 C-56.31679688 228.11085938 -55.63359375 228.22171875 -54.9296875 228.3359375 C-53.28991205 228.58157188 -51.64526727 228.79434159 -50 229 C-48.60881728 233.17354815 -49.44038569 236.7096236 -50 241 C-50.9381958 240.9292627 -51.8763916 240.85852539 -52.84301758 240.78564453 C-63.47082798 240.04542492 -74.0363928 239.84188637 -84.6875 239.875 C-85.92635956 239.87632935 -85.92635956 239.87632935 -87.19024658 239.87768555 C-99.81553854 239.8935668 -112.39953453 240.15392558 -125 241 C-125.02687279 239.18757948 -125.04633715 237.37504767 -125.0625 235.5625 C-125.07410156 234.55316406 -125.08570313 233.54382813 -125.09765625 232.50390625 C-125 230 -125 230 -124 229 C-122.4681139 229.00338248 -120.93627973 229.05734404 -119.40625 229.1328125 C-109.23145358 229.52437301 -109.23145358 229.52437301 -100.28857422 225.52832031 C-97.2242623 221.18248468 -95.71403238 216.08551981 -94.06982422 211.07324219 C-92.51435613 206.60490984 -90.56375277 202.33866452 -88.62988281 198.0234375 C-85.66516281 191.38701214 -82.83856359 184.69114847 -80 178 C-79.67626404 177.23715698 -79.35252808 176.47431396 -79.01898193 175.68835449 C-68.07723123 149.87408275 -57.7534997 123.85981477 -47.9642334 97.58734131 C-47.01205719 95.03235324 -46.05742056 92.47829445 -45.10253906 89.92431641 C-39.05554827 73.72873793 -33.14885696 57.49415131 -27.609375 41.1171875 C-27.24400635 40.03743149 -26.8786377 38.95767548 -26.50219727 37.84519958 C-24.71737069 32.56059778 -22.94502145 27.27217604 -21.18945312 21.9777832 C-20.5482155 20.06199886 -19.90694133 18.14622675 -19.265625 16.23046875 C-18.83537018 14.91470352 -18.83537018 14.91470352 -18.39642334 13.57235718 C-15.80268333 5.85704067 -15.80268333 5.85704067 -13 3 C-10.37109375 1.953125 -10.37109375 1.953125 -7.4375 1.25 C-6.46683594 1.00765625 -5.49617187 0.7653125 -4.49609375 0.515625 C-2 0 -2 0 0 0 Z M-15 47 C-20.17639272 60.81141091 -25.02897756 74.71458022 -29.75 88.6875 C-31.15000195 92.82066521 -32.55152082 96.95331539 -33.953125 101.0859375 C-34.29706299 102.10079727 -34.64100098 103.11565704 -34.99536133 104.16127014 C-37.13907575 110.48144699 -39.30140512 116.794841 -41.484375 123.1015625 C-41.74627625 123.85893204 -42.00817749 124.61630157 -42.27801514 125.3966217 C-43.48195335 128.87668816 -44.68926811 132.3555316 -45.90136719 135.83276367 C-46.31547852 137.02877197 -46.72958984 138.22478027 -47.15625 139.45703125 C-47.51525391 140.48803955 -47.87425781 141.51904785 -48.24414062 142.58129883 C-49.09942683 144.89581679 -49.09942683 144.89581679 -49 147 C-27.55 147 -6.1 147 16 147 C15.19935914 141.23069775 15.19935914 141.23069775 13.9306488 135.6655426 C13.71892029 134.88181778 13.50719177 134.09809296 13.28904724 133.2906189 C13.05887405 132.45551788 12.82870087 131.62041687 12.59155273 130.76000977 C12.34756744 129.86165909 12.10358215 128.96330841 11.85220337 128.03773499 C11.04998109 125.08785793 10.2418307 122.13964046 9.43359375 119.19140625 C8.87414965 117.13884821 8.31507803 115.08618861 7.75636292 113.03343201 C6.28872009 107.64514956 4.81603532 102.2582578 3.34228516 96.87164307 C1.83776413 91.36903807 0.338031 85.86512867 -1.16210938 80.36132812 C-4.10339673 69.57293902 -7.05001392 58.7860135 -10 48 C-11.65 47.67 -13.3 47.34 -15 47 Z " fill="#F91515" transform="translate(560,106)"/>
<path d="M0 0 C2.4375 0.1875 2.4375 0.1875 3.4375 1.1875 C3.14697785 9.1644082 0.60267023 15.77960364 -2.375 23.125 C-3.10988647 24.96348511 -3.10988647 24.96348511 -3.85961914 26.83911133 C-8.52272644 38.41226617 -13.68806593 49.74349678 -19.05078125 61.00830078 C-20.55682254 64.17556011 -22.0451235 67.35069935 -23.53125 70.52734375 C-30.35917037 85.03779902 -37.70041323 99.21072172 -45.5625 113.1875 C-46.06297852 114.07937012 -46.56345703 114.97124023 -47.07910156 115.89013672 C-59.36925936 137.6252848 -73.22480462 158.81682992 -88.54296875 178.546875 C-90.54111596 180.98796009 -90.54111596 180.98796009 -91.5625 183.1875 C-90.91410156 183.05617676 -90.26570312 182.92485352 -89.59765625 182.78955078 C-81.99428261 181.42948608 -74.52137772 180.92010644 -66.8125 180.6171875 C-65.74555908 180.57120422 -64.67861816 180.52522095 -63.5793457 180.47784424 C-59.11709374 180.2858475 -54.655898 180.09480782 -50.19140625 179.96289062 C-36.34743957 179.53480997 -26.70701359 178.97224726 -15.5625 170.1875 C-13.99917712 169.24589669 -12.4169149 168.33458397 -10.8125 167.46484375 C-10.10794678 167.07490234 -9.40339355 166.68496094 -8.67749023 166.28320312 C-7.97954346 165.90099609 -7.28159668 165.51878906 -6.5625 165.125 C-5.808479 164.70798828 -5.05445801 164.29097656 -4.27758789 163.86132812 C-0.72040186 161.89905455 2.84805486 159.96167177 6.44140625 158.06640625 C7.04662109 157.74615479 7.65183594 157.42590332 8.27539062 157.09594727 C9.89005607 156.24541355 11.50932315 155.4036318 13.12890625 154.5625 C15.55740774 153.39735706 15.55740774 153.39735706 16.4375 151.1875 C15.40625 151.6825 14.375 152.1775 13.3125 152.6875 C9.84213836 154.14281295 7.23245413 154.84749202 3.4375 154.1875 C0.5625 151.6875 0.5625 151.6875 -1.5625 149.1875 C-2.0471875 149.51363281 -2.531875 149.83976563 -3.03125 150.17578125 C-11.42342942 155.64683668 -18.38141662 158.31030204 -28.5625 157.1875 C-32.10195794 156.30102959 -34.76480301 154.9080005 -37.5 152.4375 C-39.31854165 148.58647062 -39.187594 145.22003836 -37.94140625 141.16796875 C-35.18964958 134.77166324 -30.54835771 130.98384744 -24.265625 128.15234375 C-22.38680848 127.43612823 -20.47674423 126.80279279 -18.5625 126.1875 C-18.500625 125.1975 -18.43875 124.2075 -18.375 123.1875 C-17.73817694 118.46922009 -15.25521836 115.0129486 -12.5625 111.1875 C-9.5925 111.6825 -9.5925 111.6825 -6.5625 112.1875 C-6.72213009 118.57270354 -10.34374883 121.84758365 -14.5625 126.1875 C-13.77875 126.47625 -12.995 126.765 -12.1875 127.0625 C-9.5625 128.1875 -9.5625 128.1875 -7.5625 130.1875 C-7.4940558 133.74659822 -7.69819396 136.19277438 -10.08984375 138.9453125 C-14.74181326 143.0170152 -17.99893243 144.32354197 -24.25 144.25 C-25.24386719 144.24097656 -26.23773437 144.23195313 -27.26171875 144.22265625 C-28.40060547 144.20525391 -28.40060547 144.20525391 -29.5625 144.1875 C-29.5625 145.5075 -29.5625 146.8275 -29.5625 148.1875 C-24.81826443 150.78917757 -20.66847312 150.36383437 -15.5625 149.1875 C-10.10165672 147.21417202 -6.55794128 144.41796724 -2.5625 140.1875 C-1.9025 140.1875 -1.2425 140.1875 -0.5625 140.1875 C-0.52125 139.5275 -0.48 138.8675 -0.4375 138.1875 C1.34183893 132.08690939 5.19723545 127.52373911 10.625 124.25 C18.22472763 120.77750907 27.21990197 121.07233847 35.4375 121.1875 C36.4375 122.1875 36.4375 122.1875 36.75 124.6640625 C36.32272165 129.48162587 34.48567232 133.22397282 32.4375 137.5625 C31.86515625 138.80966797 31.86515625 138.80966797 31.28125 140.08203125 C30.34330424 142.12206327 29.39526115 144.15671523 28.4375 146.1875 C33.56412115 144.57979161 38.45412897 142.57736425 43.375 140.4375 C44.14779297 140.11523438 44.92058594 139.79296875 45.71679688 139.4609375 C50.45012359 137.39635881 54.13382942 135.06936564 57.9074707 131.53369141 C62.96315629 127.08546254 68.5869435 126.82543065 74.984375 126.69140625 C77.4375 127.1875 77.4375 127.1875 79.2578125 129.03515625 C80.4375 131.1875 80.4375 131.1875 80.5625 134.0625 C78.99814012 138.4079441 76.22426648 140.64920893 72.4375 143.1875 C69.28819107 144.23726964 67.04935544 144.28881595 63.75 144.25 C62.75613281 144.24097656 61.76226563 144.23195313 60.73828125 144.22265625 C59.59939453 144.20525391 59.59939453 144.20525391 58.4375 144.1875 C58.7675 145.8375 59.0975 147.4875 59.4375 149.1875 C66.86350518 150.62479133 71.85673957 150.03548664 78.4375 146.1875 C83.3575952 142.51335696 87.91210968 138.74974919 90.6875 133.1875 C92.4375 130.1875 92.4375 130.1875 95.625 129.1875 C96.553125 129.1875 97.48125 129.1875 98.4375 129.1875 C99.4375 130.1875 99.4375 130.1875 99.5 132.75 C99.479375 133.554375 99.45875 134.35875 99.4375 135.1875 C100.16195312 134.8265625 100.88640625 134.465625 101.6328125 134.09375 C102.59960938 133.6296875 103.56640625 133.165625 104.5625 132.6875 C105.51382812 132.2234375 106.46515625 131.759375 107.4453125 131.28125 C110.70925596 130.08816362 112.99038323 129.8437432 116.4375 130.1875 C117.4275 130.8475 118.4175 131.5075 119.4375 132.1875 C120.40099377 137.83082066 117.88765825 142.26530708 115.4375 147.1875 C125.88201215 143.52591684 125.88201215 143.52591684 133.3125 135.8125 C137.3589791 129.46406978 141.93249134 126.10923799 149.26953125 124.40625 C151.4375 124.1875 151.4375 124.1875 153.88671875 124.53125 C156.72454618 124.9136831 158.6748949 124.9761792 161.4375 124.1875 C164.44059011 121.10505995 166.25509035 117.44079978 168.18554688 113.63769531 C169.67008935 110.73229979 171.21542677 107.86308534 172.765625 104.9921875 C175.21242405 100.45790954 177.65511771 95.92148794 180.09375 91.3828125 C181.20776378 89.31740104 182.32229363 87.25226778 183.4375 85.1875 C183.87191406 84.37893555 184.30632812 83.57037109 184.75390625 82.73730469 C185.79047039 80.83020236 186.85450474 78.94349177 187.9375 77.0625 C188.4840625 76.09054687 189.030625 75.11859375 189.59375 74.1171875 C191.4375 72.1875 191.4375 72.1875 194.65625 71.8828125 C195.5740625 71.98335937 196.491875 72.08390625 197.4375 72.1875 C198.92725112 76.77796834 197.17296664 79.71118229 195.1875 83.875 C194.44058075 85.49962073 193.69453572 87.12464358 192.94921875 88.75 C192.54364746 89.62527344 192.13807617 90.50054688 191.72021484 91.40234375 C185.56711871 104.76254944 179.69468064 118.24806438 174.3125 131.9375 C173.93424072 132.89551514 173.55598145 133.85353027 173.16625977 134.84057617 C172.82006592 135.73365479 172.47387207 136.6267334 172.1171875 137.546875 C171.81538574 138.32514648 171.51358398 139.10341797 171.20263672 139.90527344 C170.39521803 142.31361739 169.88406098 144.68918725 169.4375 147.1875 C175.24012101 143.87019277 180.29836107 140.71364355 184.5625 135.5 C189.06441878 130.14883488 193.39400818 127.70311305 200.34765625 126.81640625 C205.72448502 126.58263109 205.72448502 126.58263109 208.4375 127.1875 C210.81424857 129.6154716 211.413328 130.63154397 211.5625 134.0625 C209.99814012 138.4079441 207.22426648 140.64920893 203.4375 143.1875 C200.28819107 144.23726964 198.04935544 144.28881595 194.75 144.25 C193.75613281 144.24097656 192.76226563 144.23195313 191.73828125 144.22265625 C190.97902344 144.21105469 190.21976563 144.19945312 189.4375 144.1875 C189.7675 145.8375 190.0975 147.4875 190.4375 149.1875 C199.16032399 150.87578851 204.69286088 149.27186277 212.10546875 144.453125 C214.61957138 142.50420823 216.59247581 140.7814944 218.4375 138.1875 C218.72713371 135.63190848 218.427113 133.72937618 217.859375 131.23046875 C217.25790752 128.31780679 217.89630248 126.68277218 219.4375 124.1875 C223.38244938 120.54396248 226.6949671 120.69910139 231.86328125 120.81640625 C234.4375 121.1875 234.4375 121.1875 237.125 123.1875 C237.558125 123.8475 237.99125 124.5075 238.4375 125.1875 C237.7775 126.8375 237.1175 128.4875 236.4375 130.1875 C233.29012818 129.48808404 230.41161124 128.42671302 227.4375 127.1875 C226.14123921 128.2709033 226.14123921 128.2709033 226.1875 130.875 C226.47105406 134.63209123 227.68578274 136.89150567 229.4375 140.1875 C229.96706299 140.00050537 230.49662598 139.81351074 231.04223633 139.62084961 C233.44164506 138.77949166 235.84565002 137.95212574 238.25 137.125 C239.50006836 136.68317383 239.50006836 136.68317383 240.77539062 136.23242188 C241.97905273 135.8215332 241.97905273 135.8215332 243.20703125 135.40234375 C243.94542236 135.14573975 244.68381348 134.88913574 245.44458008 134.62475586 C247.4375 134.1875 247.4375 134.1875 250.4375 135.1875 C250.44140625 137.44921875 250.44140625 137.44921875 249.4375 140.1875 C246.92839002 141.88217502 244.18972671 142.91112622 241.375 144 C240.23708008 144.46696289 240.23708008 144.46696289 239.07617188 144.94335938 C237.203653 145.70885451 235.32141634 146.45050003 233.4375 147.1875 C233.59347656 148.08339844 233.74945312 148.97929688 233.91015625 149.90234375 C234.581761 154.08619262 235.20689907 157.98300611 234.4375 162.1875 C229.92866787 167.9487855 223.41414718 169.00486204 216.4375 170.1875 C211.30095849 170.80321023 207.67140692 170.39500524 203.4375 167.1875 C202.4375 166.1875 202.4375 166.1875 202.25 163.3125 C202.4375 160.1875 202.4375 160.1875 204.4375 157.1875 C203.42429687 157.22230469 202.41109375 157.25710938 201.3671875 157.29296875 C200.0156417 157.32112595 198.66407781 157.34842403 197.3125 157.375 C196.64734375 157.40013672 195.9821875 157.42527344 195.296875 157.45117188 C189.32587354 157.53898072 185.43091759 156.02354252 181.0625 152 C180.52625 151.401875 179.99 150.80375 179.4375 150.1875 C177.9215625 151.1775 177.9215625 151.1775 176.375 152.1875 C172.60826709 154.33011528 169.80222072 154.76397255 165.4375 154.1875 C163.27734375 152.984375 163.27734375 152.984375 161.4375 151.1875 C160.828125 148.70703125 160.828125 148.70703125 160.6875 146 C160.63078125 145.09894531 160.5740625 144.19789063 160.515625 143.26953125 C160.48984375 142.58246094 160.4640625 141.89539063 160.4375 141.1875 C159.90382813 141.83976563 159.37015625 142.49203125 158.8203125 143.1640625 C153.31669876 149.61985854 147.57004767 155.97426028 138.91015625 157.6875 C136.58709498 157.80798292 134.69133381 157.75453218 132.4375 157.1875 C129.96509532 154.94688325 129.49440157 153.35820471 128.4375 150.1875 C127.73625 150.5484375 127.035 150.909375 126.3125 151.28125 C120.39112204 154.17757618 116.04757598 156.0287824 109.4375 155.1875 C107.4375 153.1875 107.4375 153.1875 107.171875 150.9453125 C107.17703125 150.07648438 107.1821875 149.20765625 107.1875 148.3125 C107.17976563 147.01699219 107.17976563 147.01699219 107.171875 145.6953125 C107.44859351 143.08276423 108.1189005 141.4374912 109.4375 139.1875 C102.49087361 143.29472587 96.53491822 147.64679245 90.82421875 153.3671875 C88.00761179 155.51536891 85.92640921 155.87536094 82.4375 156.1875 C81.7775 155.1975 81.1175 154.2075 80.4375 153.1875 C79.85484375 153.47625 79.2721875 153.765 78.671875 154.0625 C70.79959903 157.62730421 63.17682116 158.8504197 54.875 155.9375 C50.53636661 152.82258372 49.36707122 150.35557484 48.4375 145.1875 C31.81974216 150.84853563 31.81974216 150.84853563 20.6171875 163.55078125 C18.06171485 169.60760576 16.06259987 175.82006323 14.4375 182.1875 C15.241875 182.15922119 15.241875 182.15922119 16.0625 182.13037109 C24.25547068 181.97708978 32.31359305 182.87009739 40.4375 183.8125 C41.18807678 183.89820251 41.93865356 183.98390503 42.7119751 184.07220459 C54.64483954 185.44874697 66.48434716 187.22311312 78.3125 189.3125 C79.0432373 189.44037903 79.77397461 189.56825806 80.52685547 189.70001221 C82.60009722 190.06583353 84.67141755 190.44077194 86.7421875 190.8203125 C87.91765137 191.03574707 89.09311523 191.25118164 90.30419922 191.47314453 C93.20894438 192.13539202 95.75824949 192.88845096 98.4375 194.1875 C98.7675 194.8475 99.0975 195.5075 99.4375 196.1875 C98.7775 197.1775 98.1175 198.1675 97.4375 199.1875 C90.91814074 198.5518095 84.50356249 197.56487122 78.0456543 196.47363281 C55.96917288 192.75091585 33.82505938 190.04628204 11.4375 189.1875 C10.94443359 190.09628906 10.94443359 190.09628906 10.44140625 191.0234375 C4.79180828 200.97530384 -2.56227911 211.4658332 -14.00390625 214.92578125 C-24.24276652 217.22366287 -35.3878413 216.91977195 -44.8828125 211.98046875 C-47.75107461 209.99428725 -49.62260125 208.09734812 -51.5625 205.1875 C-52.21971554 200.87908699 -52.50321255 198.57937061 -50.03125 194.921875 C-48.27684925 192.92300858 -46.47904085 191.03050451 -44.5625 189.1875 C-44.2325 188.8575 -43.9025 188.5275 -43.5625 188.1875 C-54.25207032 187.9359807 -64.83416526 188.28981529 -75.5 189.0625 C-76.6238208 189.14097168 -77.7476416 189.21944336 -78.90551758 189.30029297 C-94.87479409 190.38051063 -94.87479409 190.38051063 -107.5625 199.1875 C-117.12552644 208.1084858 -125.387395 214.79624378 -138.99609375 214.5 C-142.62398954 214.05824709 -144.3033849 213.04904579 -146.5625 210.1875 C-147.76071346 206.66774796 -147.9069061 204.99111424 -146.4375 201.5625 C-138.89104042 192.0036512 -126.40418421 189.31785518 -115.08789062 186.59423828 C-104.67304332 183.89016099 -99.6877225 177.57280945 -93.5 169.125 C-92.85442139 168.25230469 -92.20884277 167.37960937 -91.54370117 166.48046875 C-79.93685243 150.64845001 -69.4062785 134.16386012 -59.5625 117.1875 C-59.04284668 116.29772461 -58.52319336 115.40794922 -57.98779297 114.49121094 C-38.27476405 80.5902787 -21.69057756 45.10173869 -7.27490234 8.65625 C-6.94312988 7.82609375 -6.61135742 6.9959375 -6.26953125 6.140625 C-5.9856958 5.42036133 -5.70186035 4.70009766 -5.40942383 3.95800781 C-4.04604548 1.10784357 -3.18681076 0.23318127 0 0 Z M12.4375 132.1875 C8.29574616 136.47755193 6.79867413 140.28832251 6.4375 146.1875 C8.20621964 146.9807041 8.20621964 146.9807041 10.4375 147.1875 C15.9378103 144.15651915 20.62890548 139.80468905 23.4375 134.1875 C23.77459062 131.43491188 23.77459062 131.43491188 23.4375 129.1875 C19.14567478 127.1274239 15.84022218 129.5307885 12.4375 132.1875 Z M145.4375 133.1875 C140.24162431 137.93677002 137.2883035 142.13798531 136.4375 149.1875 C137.0975 149.8475 137.7575 150.5075 138.4375 151.1875 C143.30008271 148.22037682 146.9416016 144.84127171 150.75 140.625 C151.5553418 139.7597168 151.5553418 139.7597168 152.37695312 138.87695312 C154.69283807 136.34495786 156.34064256 134.47807231 157.4375 131.1875 C152.32762925 129.84920052 149.82671558 130.23149767 145.4375 133.1875 Z M-24.5625 136.1875 C-24.5625 136.8475 -24.5625 137.5075 -24.5625 138.1875 C-21.0975 137.6925 -21.0975 137.6925 -17.5625 137.1875 C-17.2325 135.8675 -16.9025 134.5475 -16.5625 133.1875 C-20.16107954 133.1875 -21.65701118 134.14580515 -24.5625 136.1875 Z M62.4375 136.1875 C62.7675 136.8475 63.0975 137.5075 63.4375 138.1875 C67.11021044 138.51585656 67.11021044 138.51585656 70.25 136.8125 C71.6341722 135.25381217 71.6341722 135.25381217 71.4375 133.1875 C67.74331799 133.1875 65.65913822 134.46929295 62.4375 136.1875 Z M193.4375 136.1875 C193.7675 136.8475 194.0975 137.5075 194.4375 138.1875 C198.11021044 138.51585656 198.11021044 138.51585656 201.25 136.8125 C202.6341722 135.25381217 202.6341722 135.25381217 202.4375 133.1875 C198.74331799 133.1875 196.65913822 134.46929295 193.4375 136.1875 Z M216.875 156.0625 C215.88371094 156.78179688 214.89242188 157.50109375 213.87109375 158.2421875 C211.37861522 159.95575812 211.37861522 159.95575812 210.4375 162.1875 C218.49863832 162.79349361 218.49863832 162.79349361 225.4375 159.1875 C226.77054698 156.29563214 226.77054698 156.29563214 225.5 154 C225.149375 153.401875 224.79875 152.80375 224.4375 152.1875 C221.2333972 152.1875 219.41311768 154.20275797 216.875 156.0625 Z M-0.17480469 167.94921875 C-1.91934039 168.92731855 -3.67058671 169.89341778 -5.421875 170.859375 C-6.52789063 171.478125 -7.63390625 172.096875 -8.7734375 172.734375 C-9.78712402 173.29995117 -10.80081055 173.86552734 -11.84521484 174.44824219 C-14.97635857 176.31554858 -14.97635857 176.31554858 -18.5625 180.1875 C-10.3125 180.5175 -2.0625 180.8475 6.4375 181.1875 C7.4275 178.795 8.4175 176.4025 9.4375 173.9375 C9.75074219 173.19081055 10.06398438 172.44412109 10.38671875 171.67480469 C11.7853431 168.2355948 12.4375 165.95120933 12.4375 162.1875 C7.99354808 162.1875 3.6228394 165.81556757 -0.17480469 167.94921875 Z M-41.5625 195.1875 C-43.03782411 198.03015393 -43.00826154 198.87612854 -42.5625 202.1875 C-38.70603938 206.51141039 -33.8502304 207.95925776 -28.1953125 208.5234375 C-19.50921773 208.62016461 -13.74662103 208.25771574 -7.41015625 202.09375 C-1.28596142 195.94974177 -1.28596142 195.94974177 1.4375 188.1875 C-3.58094087 186.51468638 -8.79889176 186.76568583 -14.05688477 186.67260742 C-15.42357139 186.64114669 -16.78999253 186.59357736 -18.15551758 186.52905273 C-28.19572717 186.0620946 -34.84190436 187.29502807 -41.5625 195.1875 Z M-135.6875 202.25 C-137.91021071 204.09743327 -137.91021071 204.09743327 -137.5625 207.1875 C-131.01012276 206.90867544 -126.5861776 204.34469057 -121.5625 200.1875 C-119.83483438 198.0922452 -119.83483438 198.0922452 -118.5625 196.1875 C-124.95760607 196.1875 -130.39063199 198.75406712 -135.6875 202.25 Z " fill="#000000" transform="translate(920.5625,506.8125)"/>
<path d="M0 0 C2.4305181 -0.00218223 4.86057738 -0.02041087 7.29101562 -0.03930664 C21.76314678 -0.0922987 36.21521259 0.89137281 50.32226562 4.31030273 C51.19197998 4.52058105 52.06169434 4.73085938 52.95776367 4.94750977 C66.25834089 8.39540145 79.6366004 14.458057 87.57226562 26.12280273 C91.69359862 33.37690574 92.38522814 40.0309544 90.69726562 48.18530273 C86.84920431 61.4234702 78.10824423 71.51374006 68.69726562 81.18530273 C68.17293945 81.73009277 67.64861328 82.27488281 67.10839844 82.83618164 C60.03361963 90.16865107 52.74466619 96.91306406 44.69726562 103.18530273 C43.43112515 104.18334705 42.16553208 105.18208609 40.90039062 106.18139648 C37.50656069 108.85866175 34.10404237 111.52453549 30.69726562 114.18530273 C38.34328061 113.06946047 45.95362114 111.8042011 53.56054688 110.45092773 C74.46909676 106.74953258 95.36884436 103.39616161 116.44726562 100.81030273 C117.43207916 100.68933228 118.4168927 100.56836182 119.43154907 100.44372559 C125.85010707 99.66087451 132.27195866 98.91057858 138.69726562 98.18530273 C139.58217682 98.08505798 140.46708801 97.98481323 141.3788147 97.88153076 C143.95448199 97.59223104 146.53074598 97.30921436 149.10742188 97.02905273 C149.86371887 96.94475006 150.62001587 96.86044739 151.39923096 96.77359009 C157.84650121 96.08870229 164.21350455 95.97577365 170.69726562 96.18530273 C171.02726562 97.17530273 171.35726563 98.16530273 171.69726562 99.18530273 C171.36726563 99.84530273 171.03726562 100.50530273 170.69726562 101.18530273 C168.06231723 101.64231433 165.50252295 101.96873332 162.84570312 102.22827148 C161.13409785 102.41276803 159.42251017 102.59742783 157.7109375 102.78222656 C156.79497803 102.87774811 155.87901855 102.97326965 154.93530273 103.07168579 C115.56187936 107.21274455 76.51896093 113.45577446 37.69726562 121.18530273 C35.80234375 121.56066162 35.80234375 121.56066162 33.86914062 121.94360352 C30.78581602 122.56479751 27.70919641 123.20916268 24.63476562 123.87280273 C23.83353271 124.0386084 23.0322998 124.20441406 22.20678711 124.37524414 C12.43060049 126.60570737 4.25065629 131.92311885 -3.99023438 137.43530273 C-12.30665827 142.9126477 -20.69644499 148.17744014 -29.30273438 153.18530273 C-30.03943359 153.61601074 -30.77613281 154.04671875 -31.53515625 154.49047852 C-182.65348652 242.62214237 -182.65348652 242.62214237 -240.30273438 237.18530273 C-243.86819233 236.17410471 -246.64924448 234.83879263 -249.30273438 232.18530273 C-249.98157783 227.26368772 -249.82978376 224.33854467 -246.92773438 220.24780273 C-238.25962928 209.97820016 -227.92523588 203.56841514 -216.30273438 197.18530273 C-215.20227783 196.57235352 -215.20227783 196.57235352 -214.07958984 195.94702148 C-195.15707864 185.45071327 -175.2180562 177.23713144 -155.11523438 169.31030273 C-154.42830505 169.03930756 -153.74137573 168.76831238 -153.03363037 168.48910522 C-151.02697735 167.69956345 -149.01883931 166.91397548 -147.00976562 166.13061523 C-146.36763123 165.87953506 -145.72549683 165.6284549 -145.06390381 165.36976624 C-141.83319841 164.1188875 -138.594355 162.93015692 -135.30810547 161.83276367 C-134.34767586 161.50802567 -134.34767586 161.50802567 -133.36784363 161.17672729 C-131.61655445 160.59083032 -129.85958843 160.0219799 -128.10229492 159.4543457 C-123.61290744 157.41930287 -122.07235086 154.05143655 -120.31665039 149.6015625 C-119.95476624 148.69339783 -119.59288208 147.78523315 -119.22003174 146.84954834 C-118.83611267 145.86851135 -118.4521936 144.88747437 -118.05664062 143.87670898 C-117.44559479 142.33759857 -117.44559479 142.33759857 -116.82220459 140.76739502 C-115.95021521 138.56947846 -115.08090556 136.37049723 -114.21401978 134.17056274 C-111.95850791 128.44683841 -109.68431976 122.73053877 -107.41210938 117.01342773 C-106.74366753 115.32930534 -106.74366753 115.32930534 -106.0617218 113.61116028 C-102.65585703 105.04070238 -99.17022643 96.50729584 -95.61523438 87.99780273 C-85.48351098 64.22054199 -85.48351098 64.22054199 -77.79711914 39.58886719 C-76.48772776 34.37029612 -76.48772776 34.37029612 -74.30273438 32.18530273 C-71.17773438 32.06030273 -71.17773438 32.06030273 -68.30273438 32.18530273 C-63.57979349 52.9032701 -81.97873086 82.36647188 -89.97949219 101.20581055 C-95.03314467 113.1126167 -99.95807689 125.06697893 -104.80273438 137.06030273 C-105.29957733 138.28999283 -105.29957733 138.28999283 -105.80645752 139.54452515 C-107.64215684 144.0900034 -109.47417075 148.63694948 -111.30273438 153.18530273 C-110.17931641 152.81880615 -109.05589844 152.45230957 -107.8984375 152.07470703 C-87.55480436 145.45335837 -67.19281552 138.95223372 -46.55273438 133.31030273 C-45.73552917 133.08656982 -44.91832397 132.86283691 -44.07635498 132.63232422 C-35.42879745 130.27477589 -26.76186813 128.02594625 -18.04492188 125.93920898 C-17.30870605 125.76149963 -16.57249023 125.58379028 -15.81396484 125.4006958 C-12.38838008 124.57502878 -8.96100327 123.76630615 -5.52246094 122.99633789 C5.86328683 120.30757086 14.02554821 114.99363755 23.13476562 107.87280273 C23.86703369 107.3059375 24.59930176 106.73907227 25.35375977 106.1550293 C33.96693157 99.46316257 42.3618779 92.59788821 50.41992188 85.23999023 C52.37102723 83.47964475 54.35740106 81.7934595 56.38476562 80.12280273 C66.81909962 71.19998441 78.03994954 57.76176266 80.20898438 43.91967773 C80.56164764 37.17989091 79.72537818 32.45476032 75.50976562 27.10717773 C58.80330739 9.39257116 29.8505855 7.78015731 7.02539062 6.99780273 C-61.06650383 5.58397731 -148.81352178 21.94755714 -200.74414062 69.50952148 C-204.97793276 73.93722776 -208.06567463 78.05453157 -208.51367188 84.23217773 C-208.21397338 87.00716382 -207.02339317 88.88566993 -205.09960938 90.86889648 C-198.61320686 95.62089137 -190.58948087 97.20580382 -182.74414062 97.65014648 C-180.8347168 97.76712891 -180.8347168 97.76712891 -178.88671875 97.88647461 C-176.87476188 98.00600895 -174.86273714 98.12294162 -172.8503418 98.23486328 C-170.89784099 98.34502151 -168.94597258 98.46621233 -166.99414062 98.58764648 C-165.83084229 98.65459717 -164.66754395 98.72154785 -163.46899414 98.79052734 C-160.41333969 99.17151225 -158.08472153 99.89887429 -155.30273438 101.18530273 C-155.79773438 103.16530273 -155.79773438 103.16530273 -156.30273438 105.18530273 C-200.77508579 105.91537038 -200.77508579 105.91537038 -213.99023438 95.62280273 C-217.51044116 91.91231451 -218.61488007 89.10783407 -218.74023438 83.99780273 C-218.46704372 74.16293899 -212.98482157 68.26083789 -206.21166992 61.62695312 C-200.70236291 56.44245039 -194.7403825 52.15024352 -188.30273438 48.18530273 C-187.56442383 47.72655762 -186.82611328 47.2678125 -186.06542969 46.79516602 C-132.39379504 13.82917414 -62.54763646 -0.00624976 0 0 Z M-26.76367188 135.29077148 C-27.60976517 135.52600021 -28.45585846 135.76122894 -29.32759094 136.00358582 C-32.11415723 136.78246312 -34.89601811 137.57679071 -37.67773438 138.37280273 C-39.61236712 138.91990752 -41.54701902 139.46694452 -43.48168945 140.01391602 C-56.37446375 143.6801343 -69.20600929 147.53244743 -81.99023438 151.56030273 C-82.75495056 151.80034027 -83.51966675 152.04037781 -84.30755615 152.28768921 C-89.32392252 153.86801627 -94.32210394 155.49565948 -99.30273438 157.18530273 C-100.04557678 157.43703247 -100.78841919 157.68876221 -101.55377197 157.94812012 C-103.77468212 158.71072933 -105.98679267 159.49456762 -108.19726562 160.28686523 C-108.86868088 160.51779877 -109.54009613 160.7487323 -110.2318573 160.98666382 C-115.34170731 162.86442634 -117.10767192 164.88275313 -119.54541016 169.57958984 C-120.84501247 172.42494326 -122.14322287 175.27059492 -123.42773438 178.12280273 C-124.11029297 179.60683594 -124.11029297 179.60683594 -124.80664062 181.12084961 C-125.45826172 182.55847656 -125.45826172 182.55847656 -126.12304688 184.02514648 C-126.51766113 184.89518311 -126.91227539 185.76521973 -127.31884766 186.66162109 C-128.29573311 189.16734439 -128.8603996 191.53752836 -129.30273438 194.18530273 C-124.37740379 193.53505184 -120.30122225 191.47758217 -115.87304688 189.35327148 C-115.05444183 188.96554565 -114.23583679 188.57781982 -113.39242554 188.17834473 C-110.73433821 186.91640704 -108.08073052 185.64540549 -105.42773438 184.37280273 C-104.52224854 183.94013092 -103.6167627 183.50745911 -102.68383789 183.06167603 C-72.1517731 168.46651816 -43.13533052 151.89652221 -14.30273438 134.18530273 C-18.80133822 132.78194739 -22.36218651 134.02675958 -26.76367188 135.29077148 Z M-137.11914062 170.60717773 C-137.79901535 170.86300629 -138.47889008 171.11883484 -139.17936707 171.38241577 C-141.41080164 172.22618738 -143.63838995 173.07949469 -145.86523438 173.93530273 C-146.62815796 174.22741638 -147.39108154 174.51953003 -148.17712402 174.82049561 C-162.52511927 180.33141478 -176.47409788 186.46782535 -190.30273438 193.18530273 C-191.29789062 193.66241699 -192.29304688 194.13953125 -193.31835938 194.63110352 C-220.46457764 206.69684715 -220.46457764 206.69684715 -239.30273438 228.18530273 C-237.54994126 230.33939898 -237.54994126 230.33939898 -235.45727539 230.44433594 C-229.84202369 230.39168327 -224.69076101 229.70632008 -219.24023438 228.37280273 C-217.91270142 228.05001343 -217.91270142 228.05001343 -216.55834961 227.72070312 C-188.4481538 220.53336965 -160.55554381 209.404429 -134.30273438 197.18530273 C-134.79773438 196.19530273 -134.79773438 196.19530273 -135.30273438 195.18530273 C-136.08776362 189.04244891 -133.54180749 183.89285666 -131.30273438 178.31030273 C-130.73039063 176.84850586 -130.73039063 176.84850586 -130.14648438 175.35717773 C-129.2075317 172.96284842 -128.2594287 170.57258584 -127.30273438 168.18530273 C-130.94249609 168.18530273 -133.77108844 169.33032927 -137.11914062 170.60717773 Z " fill="#000000" transform="translate(647.302734375,493.814697265625)"/>
<path d="M0 0 C1.1765918 0.10610596 1.1765918 0.10610596 2.37695312 0.21435547 C12.76374342 1.06204389 23.08479077 1.15531942 33.5 1.125 C34.8149646 1.12367065 34.8149646 1.12367065 36.15649414 1.12231445 C49.45884525 1.10652315 62.72152068 0.85274638 76 0 C76 3.63 76 7.26 76 11 C73.70961528 11.34203078 71.41759813 11.67313452 69.125 12 C67.21074219 12.2784375 67.21074219 12.2784375 65.2578125 12.5625 C62.06580913 12.95683016 58.9496466 13.04591854 55.73388672 13.02734375 C54.39932938 13.02142212 54.39932938 13.02142212 53.03781128 13.01538086 C52.0290947 13.00776733 52.0290947 13.00776733 51 13 C51.01268921 14.15162125 51.02537842 15.30324249 51.03845215 16.48976135 C51.15281788 32.07948046 50.59255218 47.63473737 49.99035454 63.20946956 C49.84670668 66.95482848 49.7085127 70.70038834 49.56994629 74.44593811 C49.15857323 85.54052006 48.73985783 96.63482312 48.31781006 107.72900391 C47.98933236 116.36446182 47.66345766 125.00000134 47.34516478 133.63584143 C47.20866535 137.33327115 47.07011056 141.0305948 46.92597961 144.72773552 C46.55936523 154.15041959 46.24213786 163.5731256 46 173 C45.97261435 174.03074638 45.97261435 174.03074638 45.94467545 175.08231592 C45.81978795 179.90061159 45.74113436 184.71779942 45.68164062 189.53735352 C45.63754185 191.39490595 45.63754185 191.39490595 45.59255219 193.2899847 C45.54201045 201.49719801 46.44125577 207.00989283 52.0625 213.3125 C67.17960671 221.99679534 91.56162704 221.00713801 108 217 C119.14114076 213.92658186 126.39799356 209.20840546 132.39453125 199.21875 C135.90918078 192.17234802 138.09393637 184.62425452 140 177 C143.96 177 147.92 177 152 177 C151.37631257 184.85846165 150.03295229 192.37334298 148.3125 200.0625 C148.04920898 201.24465088 147.78591797 202.42680176 147.51464844 203.64477539 C145.03418647 214.43684465 142.04842807 225.09762369 137 235 C124.49203143 235.26080908 112.06140262 234.87668795 99.578125 234.125 C98.4757122 234.05907654 98.4757122 234.05907654 97.35102844 233.99182129 C90.45664274 233.57769417 83.56329651 233.14730616 76.67041016 232.70898438 C60.10434234 231.66024971 43.59213771 230.81288704 26.98828125 230.84375 C25.9732465 230.84559296 25.9732465 230.84559296 24.93770599 230.84747314 C13.93924929 230.88359855 2.97258742 231.25338409 -8 232 C-8.05395478 230.37536158 -8.09277195 228.75021459 -8.125 227.125 C-8.15980469 225.76761719 -8.15980469 225.76761719 -8.1953125 224.3828125 C-8 222 -8 222 -6 220 C-0.50730518 218.81901491 5.26511899 218.95523885 10.85546875 218.9765625 C12.01071045 218.97994629 13.16595215 218.98333008 14.35620117 218.98681641 C15.66488159 218.99334229 15.66488159 218.99334229 17 219 C17.6362297 200.3422666 18.27093724 181.68448198 18.90394497 163.02663898 C19.1980483 154.35896285 19.49260718 145.69130269 19.78833008 137.02368164 C20.04677845 129.44853796 20.304279 121.87336268 20.56074673 114.29815167 C20.69594463 110.30574818 20.83154501 106.3133595 20.96829033 102.32100868 C21.24795136 94.14798517 21.52017916 85.97480778 21.77816516 77.8010692 C21.92982355 73.04131494 22.09804702 68.28238213 22.27446622 63.52348429 C22.39615259 60.17734927 22.50757666 56.83091768 22.61701596 53.48436201 C22.6709661 51.90006674 22.72906221 50.31590587 22.79179847 48.73193419 C23.93731086 31.54202866 23.93731086 31.54202866 18 16 C12.19414754 13.24985936 6.30197527 12.13785665 0 11 C0 7.37 0 3.74 0 0 Z " fill="#000000" transform="translate(229,115)"/>
<path d="M0 0 C1.02673828 0.38285156 1.02673828 0.38285156 2.07421875 0.7734375 C13.42220599 5.63367565 21.50267309 15.8488532 26.25 26.9375 C30.17721718 37.63916681 30.23509609 47.74150932 30 59 C-3.452959 62.25631519 -37.63575057 59.13595669 -71 56 C-71.43039078 76.66918714 -71.65392342 94.48185503 -59.3671875 111.95703125 C-58 114 -58 114 -57.0703125 116.13671875 C-55.70425658 118.5148526 -54.50381198 118.95220912 -52 120 C-51.2884375 120.39058594 -50.576875 120.78117187 -49.84375 121.18359375 C-34.93479671 129.15988376 -17.58054216 130.40723992 -1.1875 126.5 C6.31680967 124.19098164 13.18468578 120.71449813 20.08154297 117.015625 C23.35677118 115.28172969 26.68036627 113.64695007 30 112 C33.97895734 116.22010627 33.97895734 116.22010627 34.0625 119.31640625 C32.44203021 123.40928399 29.45142407 125.23935395 25.9375 127.75 C25.21868652 128.27223145 24.49987305 128.79446289 23.75927734 129.33251953 C1.9415388 144.89079788 -20.62291614 152.74876175 -47.62109375 149.57421875 C-60.18616029 146.79524203 -71.19421856 140.28218498 -80 131 C-80.70769531 130.26265625 -81.41539063 129.5253125 -82.14453125 128.765625 C-95.54557912 113.49406758 -99.13135018 93.05296783 -98.16845703 73.32373047 C-96.50296476 50.34959213 -86.10346144 30.39390351 -69.8125 14.42578125 C-64.96107122 10.24142393 -59.58136703 7.10797053 -54 4 C-53.29101562 3.57847656 -52.58203125 3.15695313 -51.8515625 2.72265625 C-37.59711287 -5.24660357 -14.99818953 -6.21546593 0 0 Z M-56.6875 20.5 C-63.01320597 27.91557005 -67.39468972 36.36813833 -69 46 C-44.58 46 -20.16 46 5 46 C5 34.02905673 2.59750916 25.07760959 -5.6640625 16.21484375 C-12.68470641 9.69109473 -21.41687756 7.65813217 -30.87109375 7.85546875 C-41.35723758 8.56737209 -49.3990943 12.97648444 -56.6875 20.5 Z " fill="#000000" transform="translate(1194,200)"/>
<path d="M0 0 C0.96873047 -0.01611328 1.93746094 -0.03222656 2.93554688 -0.04882812 C17.53339776 -0.05856652 28.81407805 4.95227339 39.390625 14.85546875 C50.63600811 26.8849687 52.94962925 42.91750866 52.85546875 58.79296875 C52.6875 61.3125 52.6875 61.3125 51.6875 62.3125 C19.36860691 67.1905313 -15.98874719 62.35065883 -48.3125 59.3125 C-50.60295608 80.29803002 -48.24959027 100.4806281 -35.42578125 117.87109375 C-27.79018482 126.69225414 -16.16525894 130.51641365 -4.83105469 131.53564453 C12.98385372 132.59471195 27.13395301 128.71342464 42.76904297 120.328125 C46.04427118 118.59422969 49.36786627 116.95945007 52.6875 115.3125 C56.6875 120.9375 56.6875 120.9375 56.6875 124.3125 C54.8298157 126.02424511 53.02303687 127.50654045 51 129 C50.41420166 129.43989258 49.82840332 129.87978516 49.22485352 130.33300781 C26.71837966 146.97594504 3.33121766 156.26757726 -24.86328125 152.88671875 C-37.53292283 150.09219699 -48.33007292 143.54536649 -57.3125 134.3125 C-58.13621094 133.53712891 -58.13621094 133.53712891 -58.9765625 132.74609375 C-72.21769871 119.18632057 -75.59116294 98.90042095 -75.55688477 80.85668945 C-75.2534286 56.79241758 -65.74805032 35.9931068 -48.66015625 19.19091797 C-35.16970685 6.39440693 -18.50916222 -0.06084537 0 0 Z M-36.38671875 26.61328125 C-41.33151927 33.54402599 -44.90782076 40.88442459 -46.3125 49.3125 C-21.8925 49.3125 2.5275 49.3125 27.6875 49.3125 C26.6123964 36.4112568 25.35581701 27.01200815 15.6875 18.3125 C8.52923857 12.47874017 0.07988948 10.7937137 -9.03125 11.06640625 C-20.34368967 12.28675505 -29.13178413 18.04984139 -36.38671875 26.61328125 Z " fill="#000000" transform="translate(851.3125,196.6875)"/>
<path d="M0 0 C-0.10489746 1.34626465 -0.10489746 1.34626465 -0.21191406 2.71972656 C-4.32135276 55.77244807 -7.72834605 108.83745149 -10 162 C-10.03867187 162.89936279 -10.07734375 163.79872559 -10.1171875 164.7253418 C-10.78648637 180.43682287 -11.09674027 196.14790907 -11.17422485 211.87304688 C-11.18293433 213.55551831 -11.19437727 215.23797827 -11.20883179 216.92041016 C-11.27204483 225.17718248 -11.30322506 232.99436641 -9 241 C-8.8302063 242.05078735 -8.8302063 242.05078735 -8.65698242 243.12280273 C-8.44017822 243.74227783 -8.22337402 244.36175293 -8 245 C-0.0700491 248.75629253 8.37674231 248.69316016 17 249 C17 252.3 17 255.6 17 259 C16.06953857 259.04487549 15.13907715 259.08975098 14.18041992 259.13598633 C-9.34275581 260.21778636 -9.34275581 260.21778636 -32.6484375 263.4140625 C-36 264 -36 264 -40 264 C-40.18864634 255.76563116 -39.67904663 247.63785967 -38.98017693 239.43881035 C-38.7872384 237.17494998 -38.59983711 234.91068567 -38.41371155 232.64625549 C-38.14669868 229.40299195 -37.87758618 226.15991328 -37.60681152 222.91696167 C-36.89801142 214.413363 -36.21042284 205.90804277 -35.52734375 197.40234375 C-35.45955341 196.55846415 -35.39176308 195.71458454 -35.32191849 194.84513283 C-33.56502206 172.91460647 -32.16725861 150.96950999 -31 129 C-30.92682556 127.64367462 -30.92682556 127.64367462 -30.85217285 126.25994873 C-29.81112885 106.96201397 -28.93861159 87.65989776 -28.3850708 68.34136963 C-28.33772548 66.6915304 -28.28845824 65.04174487 -28.23699951 63.39202881 C-26.81147188 42.384957 -26.81147188 42.384957 -33 23 C-38.52403948 19.12141909 -44.72502345 18.86845641 -51.3125 18.4375 C-52.56675781 18.35371094 -53.82101562 18.26992187 -55.11328125 18.18359375 C-56.54220703 18.09271484 -56.54220703 18.09271484 -58 18 C-58.02689216 16.52093108 -58.04634621 15.04172517 -58.0625 13.5625 C-58.07410156 12.73878906 -58.08570313 11.91507813 -58.09765625 11.06640625 C-58 9 -58 9 -57 8 C-55.66488866 7.80852038 -54.32115646 7.67639656 -52.9765625 7.5703125 C-52.12964844 7.4988501 -51.28273438 7.4273877 -50.41015625 7.35375977 C-49.03150391 7.24052368 -49.03150391 7.24052368 -47.625 7.125 C-33.75416139 5.89042895 -20.07466718 3.98508488 -6.56640625 0.55078125 C-4 0 -4 0 0 0 Z " fill="#000000" transform="translate(978,88)"/>
<path d="M0 0 C-0.73997636 11.65545474 -1.63262846 23.29586214 -2.5625 34.9375 C-2.7025607 36.6998629 -2.84253516 38.46223266 -2.98242188 40.22460938 C-3.32062382 44.48315234 -3.65998067 48.74160177 -4 53 C-2.81970215 52.90912109 -1.6394043 52.81824219 -0.42333984 52.72460938 C3.97101771 52.38686502 8.36559949 52.05211919 12.76025391 51.71826172 C14.65940462 51.5735676 16.55849422 51.42806897 18.45751953 51.28173828 C21.19287557 51.07110584 23.92844098 50.86340244 26.6640625 50.65625 C27.50804596 50.59062866 28.35202942 50.52500732 29.22158813 50.45739746 C33.49334814 50.13683406 37.71213479 49.92722152 42 50 C41 55 41 55 35 67 C21.47 67 7.94 67 -6 67 C-6.28571096 74.70074496 -6.28571096 74.70074496 -6.56811523 82.40161133 C-6.75593922 87.37120377 -6.954006 92.33803556 -7.24951172 97.30249023 C-7.94151746 109.01353799 -8.21725979 120.69609465 -8.24023438 132.42749023 C-8.25007004 135.45908768 -8.28130077 138.49004083 -8.3125 141.52148438 C-8.37908705 153.59063465 -8.38472645 164.39192668 -2 175 C-2 175.66 -2 176.32 -2 177 C6.40105708 180.40583395 14.42968573 181.6496137 23.1875 178.4375 C29.89612704 175.3969771 35.76504846 171.05372383 40 165 C42.84574968 166.27568089 45.18089981 167.41496289 47 170 C46.9036775 175.3844279 43.43235521 178.21742251 39.8125 181.75 C39.18899658 182.36472168 38.56549316 182.97944336 37.9230957 183.61279297 C25.23331846 195.76301992 10.8445618 203.71256995 -6.9375 203.33984375 C-13.9928412 202.94624717 -19.4479583 199.91332429 -24.375 194.9375 C-32.63333355 184.26951105 -32.26885933 169.72502148 -32.3125 156.9375 C-32.31792313 155.71885254 -32.31792313 155.71885254 -32.32345581 154.47558594 C-32.35421797 136.77694857 -31.25171247 119.14944489 -30.0625 101.5 C-29.99390463 100.47669649 -29.99390463 100.47669649 -29.92392349 99.43272018 C-29.61530493 94.83995533 -29.29704401 90.24793296 -28.97265625 85.65625 C-28.89029724 84.48171768 -28.80793823 83.30718536 -28.7230835 82.09706116 C-28.32867554 76.69173042 -27.86754498 71.35090556 -27 66 C-28.38058594 65.92652344 -28.38058594 65.92652344 -29.7890625 65.8515625 C-38.62269655 65.32982037 -47.25336217 64.38814129 -56 63 C-56.125 55.25 -56.125 55.25 -55 53 C-45.76 53 -36.52 53 -27 53 C-26.95101562 49.70257813 -26.90203125 46.40515625 -26.8515625 43.0078125 C-26.79759578 39.82400869 -26.74027136 36.64028189 -26.68261719 33.45654297 C-26.64426866 31.2391531 -26.60942629 29.02169976 -26.578125 26.80419922 C-26.53260174 23.62183911 -26.47458681 20.43991818 -26.4140625 17.2578125 C-26.40251129 16.26194122 -26.39096008 15.26606995 -26.37905884 14.24002075 C-26.35918915 13.31921722 -26.33931946 12.3984137 -26.31884766 11.44970703 C-26.30552399 10.6369632 -26.29220032 9.82421936 -26.2784729 8.98684692 C-26 7 -26 7 -24 5 C-21.67749023 4.31396484 -21.67749023 4.31396484 -18.80859375 3.7109375 C-17.78185547 3.49179688 -16.75511719 3.27265625 -15.69726562 3.046875 C-14.08368164 2.71429688 -14.08368164 2.71429688 -12.4375 2.375 C-11.35791016 2.14554688 -10.27832031 1.91609375 -9.16601562 1.6796875 C-1.21249535 0 -1.21249535 0 0 0 Z " fill="#000000" transform="translate(714,147)"/>
<path d="M0 0 C-0.48265951 6.56670963 -1.26078032 12.94434886 -2.59765625 19.39453125 C-3.04571855 22.29606091 -3.06419162 25.06858247 -3 28 C-2.44054688 27.46632812 -1.88109375 26.93265625 -1.3046875 26.3828125 C13.4561689 12.66613244 30.99132632 -0.63527701 51.96484375 -0.25 C56.82839479 0.15060137 59.57215236 1.47696251 62.875 5 C64.92796851 10.4745827 65.12465997 16.12155992 62.98046875 21.609375 C61.02781327 25.21972289 58.99991309 28.18483229 56 31 C53.46553315 29.83024607 51.31308279 28.52774442 49 26.9375 C42.64647753 22.83418341 35.3493424 23.34218849 28 24 C19.14573648 26.25399631 11.35136383 30.65355358 4 36 C2.98333252 36.68723145 1.96666504 37.37446289 0.91918945 38.08251953 C-1.58231142 40.1960561 -2.46221264 41.65765992 -2.95654297 44.89599609 C-3.08123964 46.43637352 -3.17450018 47.97950412 -3.2421875 49.5234375 C-3.30051254 50.36565353 -3.35883759 51.20786957 -3.41893005 52.0756073 C-3.60082112 54.8411493 -3.73951735 57.60682487 -3.875 60.375 C-3.98757264 62.29815171 -4.10110975 64.22124719 -4.21557617 66.14428711 C-4.95264823 79.27595306 -5.27838378 92.41117598 -5.3125 105.5625 C-5.31626648 106.37684509 -5.32003296 107.19119019 -5.32391357 108.0302124 C-5.9562373 122.85933946 -5.9562373 122.85933946 -0.625 136.0625 C2.88801378 138.65543874 5.82207183 139.08904926 10.109375 139.31640625 C10.86347656 139.35830078 11.61757812 139.40019531 12.39453125 139.44335938 C13.17183594 139.48267578 13.94914062 139.52199219 14.75 139.5625 C15.93916016 139.62727539 15.93916016 139.62727539 17.15234375 139.69335938 C19.10137815 139.79902991 21.05066748 139.89997966 23 140 C23 143.3 23 146.6 23 150 C20.9271875 150.05607422 20.9271875 150.05607422 18.8125 150.11328125 C5.28382154 150.55161139 -7.97231964 151.80864783 -21.37792969 153.65234375 C-25.24569517 154.1651648 -29.12053391 154.58576543 -33 155 C-33.10872818 149.17474278 -32.71371168 143.60652856 -31.9765625 137.83203125 C-31.75837594 136.04911283 -31.54053474 134.26615212 -31.32299805 132.4831543 C-31.20870453 131.5582016 -31.09441101 130.6332489 -30.97665405 129.68026733 C-27.91534744 104.71506354 -25.86471998 79.97743691 -25.6875 54.8125 C-25.67778168 53.99381439 -25.66806335 53.17512878 -25.65805054 52.33163452 C-25.31818884 37.43046696 -25.31818884 37.43046696 -31.125 24.0625 C-38.33120829 18.89282884 -46.34952763 18.42447326 -55 18 C-55 14.7 -55 11.4 -55 8 C-54.2064209 7.93530518 -53.4128418 7.87061035 -52.59521484 7.80395508 C-36.34867969 6.43855229 -20.69116203 4.62008066 -4.8840332 0.41137695 C-3 0 -3 0 0 0 Z " fill="#000000" transform="translate(1297,197)"/>
<path d="M0 0 C2.97 0 5.94 0 9 0 C9 87.12 9 174.24 9 264 C39.009375 264.433125 39.009375 264.433125 69.625 264.875 C82.12761534 265.05786665 94.63022586 265.24097613 107.1328125 265.42578125 C108.70834478 265.44906428 110.28387705 265.47234729 111.85940933 265.49563026 C124.96328013 265.68929809 124.96328013 265.68929809 131.4742794 265.78562832 C139.47954649 265.90401727 147.4848205 266.02190459 155.4901123 266.13861084 C156.65328088 266.15556873 156.65328088 266.15556873 157.83994782 266.17286921 C159.39796781 266.19558134 160.95598781 266.21829325 162.51400781 266.24100494 C176.64698849 266.44706958 190.77990993 266.65669021 204.91275215 266.87205505 C211.90300203 266.97849286 218.89326795 267.08327711 225.88360596 267.18377686 C232.43108235 267.27791462 238.97847059 267.37697401 245.52582169 267.47951698 C247.92731316 267.51632179 250.32883125 267.55143273 252.73037338 267.5847683 C255.98505102 267.63020296 259.23957893 267.68160774 262.49414062 267.73461914 C263.45381052 267.74658766 264.41348042 267.75855618 265.40223122 267.77088737 C271.88586123 267.88586123 271.88586123 267.88586123 273 269 C273.07205511 270.68608966 273.08386068 272.37500659 273.0625 274.0625 C273.04896484 275.44115234 273.04896484 275.44115234 273.03515625 276.84765625 C273.01775391 277.91306641 273.01775391 277.91306641 273 279 C256.24998622 279.05151999 239.51084278 278.91890553 222.76342773 278.6328125 C220.35583277 278.59322773 217.9482348 278.55382497 215.54063416 278.5145874 C209.09187573 278.4089862 202.64316153 278.30088355 196.194453 278.19228363 C190.11154963 278.09003931 184.02860773 277.99012717 177.94566942 277.88998723 C165.91907491 277.691939 153.89251138 277.49207143 141.8659668 277.29101562 C130.20224587 277.09602939 118.53851077 276.90192741 106.87475586 276.70898438 C105.79136761 276.6910624 105.79136761 276.6910624 104.68609273 276.67277837 C101.06174544 276.61282788 97.43739786 276.55289446 93.81305015 276.49296951 C63.87532261 275.9979573 33.93764563 275.4999429 4 275 C4 273.35 4 271.7 4 270 C2.68 270 1.36 270 0 270 C0 180.9 0 91.8 0 0 Z " fill="#000000" transform="translate(156,167)"/>
<path d="M0 0 C29.32109278 -0.0823297 58.62681848 0.08958562 87.94390702 0.57285571 C93.04245649 0.65620893 98.14106764 0.73563704 103.2396698 0.81568909 C111.77123114 0.95021092 120.30274311 1.0875572 128.83422852 1.22680664 C138.59335588 1.38606532 148.3525442 1.54103072 158.11177713 1.69367355 C167.65643542 1.84303578 177.20104779 1.99515945 186.74564171 2.14857674 C190.74031033 2.2127598 194.73499087 2.27609671 198.72968483 2.33868217 C222.16052982 2.70697393 245.57950399 3.20242186 269 4 C269 5.32 269 6.64 269 8 C270.32 8 271.64 8 273 8 C273 97.1 273 186.2 273 278 C270.03 278 267.06 278 264 278 C264 190.88 264 103.76 264 14 C246.84 14 229.68 14 212 14 C198.66132751 13.84946376 185.32463467 13.69677794 171.98724747 13.47497749 C165.90299877 13.37468368 159.81867619 13.27941286 153.73434448 13.18431091 C145.1924773 13.05015058 136.65066746 12.91274242 128.10888672 12.77319336 C118.30625649 12.6130857 108.50355222 12.45834061 98.70079339 12.30632645 C89.12617216 12.15772762 79.5516135 12.00540711 69.97707748 11.85142326 C65.95936701 11.78686723 61.94164006 11.72355228 57.92389297 11.66131783 C18.10374832 11.0420072 18.10374832 11.0420072 0 10 C0 6.7 0 3.4 0 0 Z " fill="#F31414" transform="translate(1134,29)"/>
<path d="M0 0 C-0.07516846 0.62003906 -0.15033691 1.24007812 -0.2277832 1.87890625 C-1.86074947 15.44622691 -3.34268942 29.02054641 -4.625 42.625 C-4.74786377 43.9140625 -4.87072754 45.203125 -4.99731445 46.53125 C-5.35167289 50.35275301 -5.68351732 54.17517907 -6 58 C-6.09861328 59.19093262 -6.19722656 60.38186523 -6.29882812 61.60888672 C-7.14228477 73.21248366 -7.22019292 84.81654085 -7.24023438 96.44726562 C-7.25004148 99.88955965 -7.28121655 103.33128011 -7.3125 106.7734375 C-7.31902331 108.99218402 -7.32427641 111.21093472 -7.328125 113.4296875 C-7.3404718 114.44344452 -7.3528186 115.45720154 -7.36553955 116.50167847 C-7.345768 122.88331299 -6.8953059 129.20093935 -4 135 C1.28768437 139.72584585 7.30211639 139.30928455 14.015625 139.60546875 C19.89860703 139.89860703 19.89860703 139.89860703 21 141 C21.23728814 147.52542373 21.23728814 147.52542373 20 150 C17.14282227 150.36303711 17.14282227 150.36303711 13.31640625 150.52734375 C11.90721888 150.59644183 10.49803949 150.66570273 9.08886719 150.73510742 C8.3487439 150.76800873 7.60862061 150.80091003 6.84606934 150.83480835 C-4.15430232 151.32949283 -15.02629482 151.86507864 -25.83374023 154.12280273 C-29.60054691 154.89358283 -32.27474131 154.86080254 -36 154 C-35.85900879 152.81374023 -35.71801758 151.62748047 -35.57275391 150.40527344 C-32.16943498 121.65536648 -29.27592092 93.07256621 -28.3125 64.125 C-28.28740356 63.41720398 -28.26230713 62.70940796 -28.2364502 61.98016357 C-26.7455371 42.62667385 -26.7455371 42.62667385 -33 25 C-38.81105876 20.04807108 -44.28239945 18.96023204 -51.75 18.4375 C-52.92046875 18.35371094 -54.0909375 18.26992187 -55.296875 18.18359375 C-56.18890625 18.12300781 -57.0809375 18.06242187 -58 18 C-58 14.7 -58 11.4 -58 8 C-57.21165771 7.93530518 -56.42331543 7.87061035 -55.61108398 7.80395508 C-39.14903703 6.4125102 -23.2580435 4.5061799 -7.20288086 0.41137695 C-4.76097408 -0.04463689 -2.47861302 -0.06893361 0 0 Z " fill="#000000" transform="translate(1059,197)"/>
<path d="M0 0 C5.76548069 4.135808 8.01526115 10.48804244 9.64453125 17.1796875 C11.55964481 33.36239708 6.23185084 49.22690765 -3.35546875 62.1796875 C-9.6443422 69.66972693 -18.07678816 79.50165195 -27.35546875 83.1796875 C-30.35546875 82.1796875 -30.35546875 82.1796875 -31.5234375 80.33203125 C-32.02810547 79.23568359 -32.02810547 79.23568359 -32.54296875 78.1171875 C-32.88714844 77.38371094 -33.23132813 76.65023437 -33.5859375 75.89453125 C-33.83988281 75.32863281 -34.09382813 74.76273437 -34.35546875 74.1796875 C-33.63101562 73.61121094 -32.9065625 73.04273438 -32.16015625 72.45703125 C-22.05271903 64.38455806 -14.37161979 57.04937137 -11.90625 43.7578125 C-11.55805716 36.98606211 -13.6623441 30.24085304 -18.15625 25.1328125 C-22.19263657 21.46479519 -26.53025867 18.69281775 -31.35546875 16.1796875 C-30.86130289 9.01428252 -29.28669132 4.89106838 -23.85546875 -0.1328125 C-16.97135785 -4.77958736 -6.98019498 -4.12272209 0 0 Z " fill="#000000" transform="translate(431.35546875,90.8203125)"/>
<path d="M0 0 C1.29550781 -0.03867187 1.29550781 -0.03867187 2.6171875 -0.078125 C5.62354642 0.31523037 6.96736692 1.14705347 9.125 3.25 C9.375 5.9375 9.375 5.9375 9.125 8.25 C7.375 8.9375 7.375 8.9375 5.125 9.25 C3.77710653 8.26971384 2.44287285 7.27028865 1.125 6.25 C0.135 6.58 -0.855 6.91 -1.875 7.25 C-2.0812504 12.40625988 -1.57430719 15.15207844 0.125 20.25 C6.725 17.94 13.325 15.63 20.125 13.25 C20.62 15.725 20.62 15.725 21.125 18.25 C15.79166667 20.91666667 10.45833333 23.58333333 5.125 26.25 C5.3725 27.4875 5.3725 27.4875 5.625 28.75 C7.01820388 38.50242718 7.01820388 38.50242718 4.6875 43.0625 C1.15707925 46.07627381 -2.43247451 47.1012095 -6.875 48.25 C-7.7 48.476875 -8.525 48.70375 -9.375 48.9375 C-14.81280974 49.61722622 -20.0661529 50.24895279 -24.875 47.25 C-26.38434217 44.23131566 -26.05010672 41.57702771 -25.875 38.25 C-25.215 37.26 -24.555 36.27 -23.875 35.25 C-24.42671875 35.40855469 -24.9784375 35.56710937 -25.546875 35.73046875 C-33.51619693 37.50885771 -40.01220687 36.57101789 -46.875 32.25 C-48.73327924 28.53344153 -48.31317875 24.3062833 -47.875 20.25 C-45.01139174 14.29369482 -39.97195941 9.76406905 -34.0625 6.875 C-28.38063821 5.76090945 -22.81313923 4.95790718 -17.875 8.25 C-17.17895 12.77432501 -17.52040247 14.71303802 -20.0625 18.5625 C-23.50906959 21.85588872 -26.00324483 23.12370073 -30.76953125 23.4453125 C-31.73246094 23.42210937 -32.69539062 23.39890625 -33.6875 23.375 C-35.15123047 23.34792969 -35.15123047 23.34792969 -36.64453125 23.3203125 C-37.38058594 23.29710937 -38.11664062 23.27390625 -38.875 23.25 C-38.545 24.9 -38.215 26.55 -37.875 28.25 C-29.24371061 29.92057214 -23.96627627 28.2205988 -16.46484375 23.84375 C-14.06973738 22.12028721 -12.476586 20.73644014 -10.875 18.25 C-10.49685147 15.08195567 -10.62082054 12.1825757 -10.8515625 9.00390625 C-10.875 6.25 -10.875 6.25 -9 3.0625 C-5.86926217 0.3921648 -4.04796069 0.07207052 0 0 Z M-34.875 15.25 C-34.875 15.91 -34.875 16.57 -34.875 17.25 C-31.43706661 17.06870185 -31.43706661 17.06870185 -27.875 16.25 C-26.36205712 14.31402968 -26.36205712 14.31402968 -25.875 12.25 C-29.56918201 12.25 -31.65336178 13.53179295 -34.875 15.25 Z M-5.875 31.25 C-8.39188126 32.57248378 -8.39188126 32.57248378 -10.9375 34.5 C-11.81535156 35.12390625 -12.69320312 35.7478125 -13.59765625 36.390625 C-16.06867889 38.22234615 -16.06867889 38.22234615 -17.875 41.25 C-11.19882362 41.60073905 -11.19882362 41.60073905 -4.75 40.125 C-2.54066941 38.31238155 -2.54066941 38.31238155 -2.5625 35.0625 C-2.665625 34.134375 -2.76875 33.20625 -2.875 32.25 C-3.865 31.92 -4.855 31.59 -5.875 31.25 Z " fill="#000000" transform="translate(708.875,627.75)"/>
<path d="M0 0 C4.88113432 2.30744532 7.55643986 5.20338195 10 10 C11.87505261 17.37703182 10.81846056 23.62285897 7.25 30.25 C4.07629806 34.12896904 1.5285079 36.62568916 -3.5859375 37.3828125 C-9.9229167 37.6432363 -13.95953421 36.88535905 -19 33 C-23.33961379 27.21384828 -23.59570981 21.01854466 -23 14 C-21.19365093 8.20066878 -18.4263333 4.09101711 -13.17578125 0.88671875 C-8.94575843 -0.83718642 -4.4749076 -0.51958289 0 0 Z " fill="#000000" transform="translate(1052,122)"/>
</svg>
