<?xml version="1.0" encoding="UTF-8"?>
<svg xmlns="http://www.w3.org/2000/svg" xmlns:xlink="http://www.w3.org/1999/xlink" width="144px" height="144px" viewBox="0 0 144 144" version="1.1">
<g id="surface1">
<path style=" stroke:none;fill-rule:nonzero;fill:rgb(97.647059%,8.235294%,8.235294%);fill-opacity:1;" d="M 51.59375 20.191406 C 52.507812 26.210938 53.414062 32.230469 54.3125 38.257812 C 54.40625 38.898438 54.5 39.539062 54.597656 40.179688 C 54.636719 40.433594 54.671875 40.691406 54.710938 40.945312 C 54.730469 41.074219 54.75 41.199219 54.769531 41.328125 C 54.84375 41.835938 54.917969 42.34375 54.996094 42.851562 C 55.03125 43.105469 55.070312 43.359375 55.109375 43.613281 C 55.203125 44.257812 55.300781 44.902344 55.394531 45.542969 C 55.605469 46.957031 55.816406 48.367188 56.027344 49.78125 C 56.113281 50.375 56.203125 50.972656 56.292969 51.566406 C 57.085938 58.183594 57.085938 58.183594 59.078125 63.214844 C 59.527344 63.492188 59.972656 63.65625 60.4375 63.808594 C 60.4375 64.5625 60.4375 65.316406 60.4375 66.09375 C 60.304688 66.074219 60.304688 66.074219 60.167969 66.054688 C 59.136719 65.910156 58.105469 65.875 57.074219 65.878906 C 56.804688 65.882812 56.535156 65.878906 56.269531 65.878906 C 55.199219 65.878906 54.136719 65.945312 53.066406 66.09375 C 53.058594 64.476562 53.058594 64.476562 53.066406 64 C 53.34375 63.425781 54.164062 63.625 54.542969 63.605469 C 54.757812 63.605469 54.972656 63.613281 55.1875 63.617188 C 55.160156 63.453125 55.132812 63.285156 55.109375 63.113281 C 54.773438 60.945312 54.472656 58.753906 54.179688 56.558594 C 54.097656 55.945312 54.015625 55.332031 53.929688 54.71875 C 53.878906 54.328125 53.824219 53.9375 53.773438 53.542969 C 53.75 53.363281 53.722656 53.179688 53.699219 52.992188 C 53.675781 52.824219 53.652344 52.652344 53.628906 52.480469 C 53.601562 52.257812 53.601562 52.257812 53.570312 52.03125 C 53.527344 51.617188 53.527344 51.617188 53.527344 50.855469 C 51.160156 50.945312 48.796875 51.105469 46.433594 51.429688 C 46.421875 51.585938 46.414062 51.746094 46.402344 51.910156 C 46.335938 52.640625 46.222656 53.308594 46.097656 53.996094 C 46.074219 54.132812 46.050781 54.265625 46.023438 54.402344 C 45.921875 54.972656 45.820312 55.539062 45.71875 56.105469 C 45.105469 59.117188 45.105469 59.117188 45.144531 62.285156 C 45.421875 63.105469 45.695312 63.363281 46.152344 63.554688 C 46.214844 63.578125 46.277344 63.597656 46.339844 63.617188 C 46.40625 63.640625 46.46875 63.660156 46.53125 63.683594 C 46.683594 63.730469 46.835938 63.769531 46.988281 63.808594 C 47.113281 64.605469 47.039062 65.277344 46.988281 66.09375 C 46.898438 66.082031 46.8125 66.066406 46.726562 66.054688 C 45.746094 65.914062 44.773438 65.875 43.789062 65.882812 C 43.675781 65.882812 43.675781 65.882812 43.558594 65.882812 C 42.398438 65.882812 41.238281 65.933594 40.078125 66.09375 C 40.074219 65.75 40.074219 65.40625 40.070312 65.058594 C 40.070312 64.867188 40.070312 64.675781 40.066406 64.476562 C 40.078125 64 40.078125 64 40.167969 63.808594 C 40.308594 63.808594 40.449219 63.820312 40.59375 63.835938 C 41.53125 63.910156 41.53125 63.910156 42.351562 63.148438 C 42.636719 62.320312 42.773438 61.351562 42.925781 60.394531 C 43.070312 59.542969 43.25 58.730469 43.425781 57.910156 C 43.699219 56.644531 43.960938 55.371094 44.222656 54.09375 C 44.253906 53.949219 44.28125 53.804688 44.3125 53.65625 C 45.320312 48.738281 46.273438 43.78125 47.175781 38.777344 C 47.261719 38.292969 47.351562 37.804688 47.4375 37.320312 C 47.996094 34.234375 48.539062 31.140625 49.050781 28.023438 C 49.082031 27.816406 49.117188 27.609375 49.152344 27.398438 C 49.316406 26.390625 49.480469 25.386719 49.640625 24.375 C 49.699219 24.011719 49.757812 23.648438 49.816406 23.28125 C 49.859375 23.03125 49.859375 23.03125 49.898438 22.777344 C 50.136719 21.304688 50.136719 21.304688 50.394531 20.761719 C 50.636719 20.5625 50.636719 20.5625 50.90625 20.429688 C 50.996094 20.382812 51.085938 20.335938 51.179688 20.289062 C 51.410156 20.191406 51.410156 20.191406 51.59375 20.191406 Z M 50.210938 29.144531 C 49.734375 31.773438 49.289062 34.421875 48.851562 37.082031 C 48.722656 37.871094 48.59375 38.65625 48.464844 39.445312 C 48.433594 39.636719 48.402344 39.832031 48.367188 40.03125 C 48.171875 41.234375 47.972656 42.4375 47.769531 43.636719 C 47.746094 43.78125 47.722656 43.925781 47.699219 44.074219 C 47.585938 44.738281 47.476562 45.402344 47.363281 46.0625 C 47.324219 46.292969 47.289062 46.519531 47.25 46.753906 C 47.214844 46.949219 47.183594 47.148438 47.148438 47.347656 C 47.070312 47.789062 47.070312 47.789062 47.078125 48.191406 C 49.054688 48.191406 51.03125 48.191406 53.066406 48.191406 C 52.992188 47.089844 52.992188 47.089844 52.875 46.03125 C 52.855469 45.882812 52.835938 45.734375 52.816406 45.578125 C 52.796875 45.421875 52.773438 45.261719 52.753906 45.097656 C 52.730469 44.925781 52.707031 44.753906 52.683594 44.578125 C 52.609375 44.015625 52.535156 43.457031 52.460938 42.894531 C 52.410156 42.503906 52.359375 42.113281 52.308594 41.71875 C 52.171875 40.695312 52.035156 39.667969 51.902344 38.640625 C 51.761719 37.59375 51.625 36.546875 51.484375 35.496094 C 51.214844 33.441406 50.945312 31.386719 50.671875 29.332031 C 50.519531 29.269531 50.367188 29.207031 50.210938 29.144531 Z M 50.210938 29.144531 "/>
<path style=" stroke:none;fill-rule:nonzero;fill:rgb(0%,0%,0%);fill-opacity:1;" d="M 84.8125 96.535156 C 85.035156 96.570312 85.035156 96.570312 85.128906 96.761719 C 85.101562 98.28125 84.867188 99.542969 84.59375 100.941406 C 84.523438 101.289062 84.523438 101.289062 84.457031 101.648438 C 84.027344 103.851562 83.550781 106.011719 83.058594 108.15625 C 82.917969 108.757812 82.78125 109.363281 82.644531 109.96875 C 82.015625 112.734375 81.339844 115.433594 80.613281 118.09375 C 80.566406 118.265625 80.523438 118.433594 80.472656 118.609375 C 79.34375 122.75 78.066406 126.785156 76.65625 130.542969 C 76.46875 131.007812 76.46875 131.007812 76.375 131.429688 C 76.4375 131.402344 76.496094 131.378906 76.558594 131.351562 C 77.257812 131.09375 77.945312 130.996094 78.65625 130.9375 C 78.753906 130.929688 78.851562 130.921875 78.953125 130.914062 C 79.367188 130.875 79.777344 130.839844 80.1875 130.8125 C 81.464844 130.734375 82.351562 130.625 83.378906 128.953125 C 83.523438 128.773438 83.667969 128.597656 83.816406 128.433594 C 83.878906 128.359375 83.945312 128.285156 84.011719 128.207031 C 84.078125 128.136719 84.140625 128.0625 84.207031 127.988281 C 84.277344 127.910156 84.347656 127.828125 84.417969 127.746094 C 84.746094 127.375 85.074219 127.003906 85.40625 126.644531 C 85.460938 126.582031 85.515625 126.523438 85.574219 126.457031 C 85.722656 126.296875 85.871094 126.136719 86.019531 125.976562 C 86.246094 125.753906 86.246094 125.753906 86.328125 125.332031 C 86.230469 125.425781 86.136719 125.523438 86.039062 125.617188 C 85.71875 125.894531 85.476562 126.03125 85.128906 125.90625 C 84.863281 125.429688 84.863281 125.429688 84.667969 124.953125 C 84.625 125.015625 84.578125 125.078125 84.53125 125.140625 C 83.757812 126.183594 83.117188 126.691406 82.179688 126.476562 C 81.855469 126.308594 81.609375 126.042969 81.355469 125.570312 C 81.191406 124.839844 81.203125 124.195312 81.316406 123.425781 C 81.570312 122.207031 81.996094 121.484375 82.578125 120.945312 C 82.75 120.808594 82.925781 120.6875 83.101562 120.570312 C 83.109375 120.382812 83.113281 120.195312 83.117188 120 C 83.175781 119.101562 83.40625 118.441406 83.65625 117.714844 C 83.929688 117.808594 83.929688 117.808594 84.207031 117.90625 C 84.191406 119.121094 83.859375 119.746094 83.46875 120.570312 C 83.542969 120.625 83.613281 120.679688 83.6875 120.738281 C 83.929688 120.953125 83.929688 120.953125 84.113281 121.332031 C 84.121094 122.011719 84.101562 122.476562 83.882812 123 C 83.453125 123.777344 83.152344 124.027344 82.578125 124.011719 C 82.484375 124.011719 82.394531 124.007812 82.300781 124.007812 C 82.195312 124.003906 82.195312 124.003906 82.089844 124 C 82.089844 124.25 82.089844 124.503906 82.089844 124.761719 C 82.523438 125.257812 82.90625 125.175781 83.378906 124.953125 C 83.882812 124.578125 84.207031 124.042969 84.574219 123.238281 C 84.636719 123.238281 84.699219 123.238281 84.761719 123.238281 C 84.765625 123.113281 84.769531 122.988281 84.773438 122.855469 C 84.933594 121.695312 85.289062 120.824219 85.789062 120.203125 C 86.492188 119.539062 87.320312 119.597656 88.078125 119.617188 C 88.167969 119.808594 88.167969 119.808594 88.199219 120.28125 C 88.160156 121.199219 87.988281 121.910156 87.800781 122.738281 C 87.746094 122.976562 87.746094 122.976562 87.695312 123.21875 C 87.609375 123.605469 87.519531 123.992188 87.433594 124.382812 C 87.902344 124.074219 88.355469 123.691406 88.808594 123.285156 C 88.878906 123.222656 88.949219 123.164062 89.023438 123.101562 C 89.460938 122.707031 89.800781 122.261719 90.148438 121.589844 C 90.613281 120.742188 91.128906 120.691406 91.71875 120.667969 C 91.945312 120.761719 91.945312 120.761719 92.113281 121.113281 C 92.222656 121.523438 92.222656 121.523438 92.234375 122.070312 C 92.089844 122.898438 91.835938 123.324219 91.484375 123.808594 C 91.195312 124.007812 90.988281 124.019531 90.683594 124.011719 C 90.59375 124.011719 90.503906 124.007812 90.40625 124.007812 C 90.304688 124.003906 90.304688 124.003906 90.195312 124 C 90.226562 124.3125 90.257812 124.628906 90.289062 124.953125 C 90.972656 125.226562 91.433594 125.113281 92.039062 124.382812 C 92.492188 123.679688 92.910156 122.964844 93.167969 121.90625 C 93.328125 121.332031 93.328125 121.332031 93.621094 121.144531 C 93.707031 121.144531 93.792969 121.144531 93.882812 121.144531 C 93.972656 121.332031 93.972656 121.332031 93.980469 121.820312 C 93.976562 121.976562 93.976562 122.128906 93.972656 122.285156 C 94.039062 122.21875 94.105469 122.148438 94.175781 122.078125 C 94.265625 121.988281 94.355469 121.902344 94.445312 121.808594 C 94.53125 121.722656 94.621094 121.632812 94.710938 121.542969 C 95.011719 121.3125 95.222656 121.269531 95.539062 121.332031 C 95.628906 121.460938 95.722656 121.585938 95.816406 121.714844 C 95.90625 122.789062 95.671875 123.632812 95.445312 124.570312 C 96.410156 123.875 96.410156 123.875 97.09375 122.40625 C 97.46875 121.195312 97.886719 120.554688 98.5625 120.230469 C 98.765625 120.191406 98.765625 120.191406 98.988281 120.257812 C 99.25 120.328125 99.429688 120.339844 99.683594 120.191406 C 99.960938 119.601562 100.128906 118.90625 100.308594 118.179688 C 100.445312 117.628906 100.585938 117.082031 100.730469 116.535156 C 100.953125 115.671875 101.179688 114.804688 101.402344 113.941406 C 101.507812 113.546875 101.609375 113.15625 101.710938 112.761719 C 101.753906 112.609375 101.792969 112.453125 101.832031 112.296875 C 101.929688 111.933594 102.027344 111.574219 102.125 111.214844 C 102.175781 111.027344 102.226562 110.84375 102.277344 110.652344 C 102.449219 110.285156 102.449219 110.285156 102.746094 110.226562 C 102.832031 110.246094 102.914062 110.265625 103 110.285156 C 103.140625 111.160156 102.976562 111.71875 102.792969 112.511719 C 102.726562 112.820312 102.65625 113.132812 102.589844 113.441406 C 102.550781 113.605469 102.515625 113.773438 102.476562 113.945312 C 101.910156 116.492188 101.367188 119.058594 100.871094 121.667969 C 100.835938 121.847656 100.800781 122.03125 100.765625 122.21875 C 100.734375 122.390625 100.703125 122.558594 100.667969 122.734375 C 100.640625 122.882812 100.613281 123.03125 100.585938 123.183594 C 100.511719 123.644531 100.464844 124.09375 100.421875 124.570312 C 100.957031 123.941406 101.421875 123.339844 101.816406 122.34375 C 102.230469 121.324219 102.628906 120.859375 103.269531 120.691406 C 103.765625 120.648438 103.765625 120.648438 104.015625 120.761719 C 104.234375 121.222656 104.289062 121.417969 104.304688 122.070312 C 104.160156 122.898438 103.902344 123.324219 103.554688 123.808594 C 103.265625 124.007812 103.058594 124.019531 102.753906 124.011719 C 102.664062 124.011719 102.570312 124.007812 102.476562 124.007812 C 102.40625 124.003906 102.335938 124.003906 102.265625 124 C 102.296875 124.3125 102.324219 124.628906 102.355469 124.953125 C 103.160156 125.273438 103.671875 124.96875 104.351562 124.050781 C 104.585938 123.679688 104.765625 123.351562 104.9375 122.855469 C 104.964844 122.371094 104.9375 122.007812 104.882812 121.53125 C 104.828125 120.976562 104.886719 120.664062 105.027344 120.191406 C 105.390625 119.496094 105.699219 119.527344 106.171875 119.546875 C 106.410156 119.617188 106.410156 119.617188 106.660156 120 C 106.699219 120.125 106.738281 120.25 106.777344 120.382812 C 106.71875 120.695312 106.65625 121.007812 106.59375 121.332031 C 106.304688 121.199219 106.039062 120.996094 105.765625 120.761719 C 105.644531 120.96875 105.644531 120.96875 105.652344 121.464844 C 105.675781 122.179688 105.789062 122.609375 105.949219 123.238281 C 106 123.203125 106.046875 123.167969 106.097656 123.128906 C 106.320312 122.96875 106.539062 122.8125 106.761719 122.65625 C 106.878906 122.570312 106.878906 122.570312 106.996094 122.484375 C 107.105469 122.40625 107.105469 122.40625 107.21875 122.328125 C 107.285156 122.277344 107.355469 122.230469 107.425781 122.179688 C 107.609375 122.09375 107.609375 122.09375 107.886719 122.285156 C 107.886719 122.714844 107.886719 122.714844 107.792969 123.238281 C 107.5625 123.5625 107.308594 123.757812 107.050781 123.964844 C 106.945312 124.054688 106.945312 124.054688 106.839844 124.144531 C 106.664062 124.289062 106.492188 124.429688 106.320312 124.570312 C 106.332031 124.742188 106.347656 124.914062 106.363281 125.089844 C 106.425781 125.886719 106.480469 126.628906 106.410156 127.429688 C 105.996094 128.527344 105.394531 128.726562 104.753906 128.953125 C 104.277344 129.070312 103.945312 128.992188 103.554688 128.382812 C 103.460938 128.191406 103.460938 128.191406 103.445312 127.644531 C 103.460938 127.046875 103.460938 127.046875 103.648438 126.476562 C 103.554688 126.484375 103.460938 126.488281 103.363281 126.496094 C 103.238281 126.5 103.113281 126.507812 102.992188 126.511719 C 102.929688 126.515625 102.867188 126.519531 102.804688 126.527344 C 102.253906 126.542969 101.894531 126.253906 101.492188 125.488281 C 101.445312 125.375 101.394531 125.261719 101.34375 125.144531 C 101.203125 125.332031 101.203125 125.332031 101.0625 125.523438 C 100.714844 125.933594 100.457031 126.015625 100.054688 125.90625 C 99.855469 125.675781 99.855469 125.675781 99.683594 125.332031 C 99.628906 124.859375 99.628906 124.859375 99.617188 124.34375 C 99.609375 124.171875 99.605469 124.003906 99.601562 123.824219 C 99.597656 123.695312 99.59375 123.5625 99.59375 123.429688 C 99.542969 123.554688 99.496094 123.675781 99.445312 123.804688 C 98.9375 125.035156 98.40625 126.246094 97.609375 126.570312 C 97.394531 126.59375 97.222656 126.585938 97.011719 126.476562 C 96.785156 126.050781 96.742188 125.746094 96.644531 125.144531 C 96.582031 125.210938 96.515625 125.28125 96.449219 125.351562 C 95.902344 125.902344 95.503906 126.253906 94.894531 126.09375 C 94.710938 125.714844 94.710938 125.714844 94.6875 125.289062 C 94.6875 125.121094 94.6875 124.957031 94.6875 124.785156 C 94.6875 124.539062 94.6875 124.539062 94.6875 124.289062 C 94.710938 123.789062 94.773438 123.476562 94.894531 123.046875 C 94.253906 123.828125 93.707031 124.660156 93.179688 125.75 C 92.921875 126.15625 92.726562 126.226562 92.40625 126.285156 C 92.347656 126.097656 92.285156 125.910156 92.222656 125.714844 C 92.167969 125.769531 92.117188 125.824219 92.058594 125.882812 C 91.335938 126.558594 90.632812 126.792969 89.867188 126.238281 C 89.46875 125.644531 89.359375 125.175781 89.273438 124.191406 C 87.742188 125.269531 87.742188 125.269531 86.710938 127.6875 C 86.476562 128.84375 86.292969 130.023438 86.140625 131.238281 C 86.214844 131.234375 86.214844 131.234375 86.292969 131.226562 C 87.046875 131.199219 87.789062 131.367188 88.539062 131.546875 C 88.605469 131.5625 88.675781 131.582031 88.746094 131.597656 C 89.847656 131.859375 90.9375 132.195312 92.027344 132.59375 C 92.09375 132.621094 92.160156 132.644531 92.230469 132.667969 C 92.421875 132.738281 92.613281 132.808594 92.804688 132.882812 C 92.910156 132.921875 93.019531 132.964844 93.132812 133.007812 C 93.398438 133.132812 93.632812 133.277344 93.882812 133.523438 C 93.910156 133.648438 93.941406 133.773438 93.972656 133.90625 C 93.914062 134.09375 93.851562 134.28125 93.789062 134.476562 C 93.1875 134.355469 92.597656 134.167969 92.003906 133.960938 C 89.96875 133.25 87.929688 132.734375 85.867188 132.570312 C 85.820312 132.746094 85.820312 132.746094 85.773438 132.921875 C 85.253906 134.816406 84.574219 136.816406 83.523438 137.472656 C 82.578125 137.910156 81.550781 137.855469 80.675781 136.914062 C 80.414062 136.535156 80.238281 136.171875 80.0625 135.617188 C 80 134.796875 79.976562 134.359375 80.203125 133.664062 C 80.363281 133.28125 80.53125 132.921875 80.707031 132.570312 C 80.738281 132.507812 80.765625 132.445312 80.796875 132.382812 C 79.8125 132.332031 78.839844 132.402344 77.855469 132.546875 C 77.753906 132.5625 77.648438 132.578125 77.542969 132.59375 C 76.070312 132.796875 76.070312 132.796875 74.902344 134.476562 C 74.019531 136.175781 73.261719 137.449219 72.007812 137.394531 C 71.671875 137.308594 71.515625 137.117188 71.308594 136.570312 C 71.199219 135.902344 71.183594 135.582031 71.320312 134.929688 C 72.015625 133.109375 73.167969 132.597656 74.207031 132.078125 C 75.167969 131.5625 75.628906 130.359375 76.199219 128.75 C 76.257812 128.582031 76.316406 128.417969 76.378906 128.246094 C 77.449219 125.230469 78.417969 122.089844 79.324219 118.855469 C 79.371094 118.6875 79.421875 118.519531 79.46875 118.34375 C 81.285156 111.886719 82.8125 105.125 84.140625 98.183594 C 84.171875 98.027344 84.203125 97.867188 84.234375 97.707031 C 84.261719 97.566406 84.285156 97.429688 84.3125 97.289062 C 84.4375 96.746094 84.519531 96.582031 84.8125 96.535156 Z M 85.957031 121.714844 C 85.578125 122.53125 85.4375 123.257812 85.40625 124.382812 C 85.566406 124.53125 85.566406 124.53125 85.773438 124.570312 C 86.28125 123.992188 86.710938 123.164062 86.972656 122.09375 C 87.003906 121.570312 87.003906 121.570312 86.972656 121.144531 C 86.574219 120.75 86.269531 121.207031 85.957031 121.714844 Z M 98.210938 121.90625 C 97.734375 122.808594 97.460938 123.609375 97.382812 124.953125 C 97.441406 125.078125 97.503906 125.203125 97.566406 125.332031 C 98.015625 124.769531 98.351562 124.125 98.699219 123.320312 C 98.773438 123.15625 98.773438 123.15625 98.851562 122.988281 C 99.0625 122.507812 99.214844 122.152344 99.316406 121.523438 C 98.847656 121.269531 98.617188 121.339844 98.210938 121.90625 Z M 82.550781 122.476562 C 82.550781 122.601562 82.550781 122.726562 82.550781 122.855469 C 82.867188 122.761719 82.867188 122.761719 83.195312 122.667969 C 83.222656 122.414062 83.253906 122.164062 83.285156 121.90625 C 82.953125 121.90625 82.816406 122.085938 82.550781 122.476562 Z M 90.5625 122.476562 C 90.59375 122.601562 90.625 122.726562 90.65625 122.855469 C 90.996094 122.917969 90.996094 122.917969 91.285156 122.59375 C 91.410156 122.296875 91.410156 122.296875 91.394531 121.90625 C 91.054688 121.90625 90.859375 122.148438 90.5625 122.476562 Z M 102.632812 122.476562 C 102.664062 122.601562 102.695312 122.726562 102.726562 122.855469 C 103.0625 122.917969 103.0625 122.917969 103.351562 122.59375 C 103.480469 122.296875 103.480469 122.296875 103.460938 121.90625 C 103.121094 121.90625 102.929688 122.148438 102.632812 122.476562 Z M 104.792969 126.261719 C 104.703125 126.398438 104.609375 126.535156 104.515625 126.675781 C 104.285156 127.003906 104.285156 127.003906 104.199219 127.429688 C 104.941406 127.542969 104.941406 127.542969 105.582031 126.855469 C 105.703125 126.304688 105.703125 126.304688 105.585938 125.867188 C 105.554688 125.753906 105.523438 125.640625 105.488281 125.523438 C 105.195312 125.523438 105.027344 125.90625 104.792969 126.261719 Z M 84.796875 128.527344 C 84.636719 128.710938 84.472656 128.894531 84.3125 129.082031 C 84.210938 129.199219 84.109375 129.316406 84.003906 129.4375 C 83.910156 129.546875 83.816406 129.652344 83.71875 129.765625 C 83.433594 130.121094 83.433594 130.121094 83.101562 130.855469 C 83.863281 130.921875 84.621094 130.984375 85.40625 131.046875 C 85.496094 130.59375 85.585938 130.136719 85.679688 129.667969 C 85.710938 129.523438 85.738281 129.382812 85.769531 129.234375 C 85.898438 128.582031 85.957031 128.144531 85.957031 127.429688 C 85.546875 127.429688 85.144531 128.121094 84.796875 128.527344 Z M 80.984375 133.714844 C 80.847656 134.253906 80.847656 134.417969 80.890625 135.046875 C 81.246094 135.871094 81.691406 136.148438 82.214844 136.253906 C 83.015625 136.273438 83.546875 136.203125 84.128906 135.03125 C 84.695312 133.859375 84.695312 133.859375 84.945312 132.382812 C 84.480469 132.0625 84 132.109375 83.515625 132.09375 C 83.390625 132.085938 83.265625 132.078125 83.140625 132.066406 C 82.214844 131.976562 81.601562 132.210938 80.984375 133.714844 Z M 72.3125 135.058594 C 72.105469 135.410156 72.105469 135.410156 72.136719 136 C 72.742188 135.945312 73.148438 135.457031 73.613281 134.667969 C 73.769531 134.265625 73.769531 134.265625 73.890625 133.90625 C 73.300781 133.90625 72.800781 134.394531 72.3125 135.058594 Z M 72.3125 135.058594 "/>
<path style=" stroke:none;fill-rule:nonzero;fill:rgb(0%,0%,0%);fill-opacity:1;" d="M 59.636719 94.058594 C 59.859375 94.058594 60.085938 94.054688 60.308594 94.050781 C 61.640625 94.042969 62.972656 94.230469 64.273438 94.882812 C 64.351562 94.921875 64.433594 94.960938 64.515625 95.003906 C 65.742188 95.660156 66.972656 96.8125 67.703125 99.035156 C 68.085938 100.417969 68.148438 101.683594 67.992188 103.238281 C 67.636719 105.757812 66.832031 107.679688 65.964844 109.523438 C 65.917969 109.628906 65.867188 109.730469 65.820312 109.839844 C 65.167969 111.234375 64.496094 112.519531 63.753906 113.714844 C 63.636719 113.90625 63.519531 114.09375 63.40625 114.285156 C 63.09375 114.796875 62.777344 115.300781 62.464844 115.808594 C 63.167969 115.597656 63.871094 115.355469 64.570312 115.097656 C 66.496094 114.394531 68.421875 113.753906 70.363281 113.261719 C 70.457031 113.238281 70.546875 113.214844 70.640625 113.191406 C 71.230469 113.042969 71.824219 112.898438 72.414062 112.761719 C 72.496094 112.742188 72.578125 112.722656 72.660156 112.703125 C 72.898438 112.648438 73.136719 112.59375 73.375 112.542969 C 73.441406 112.527344 73.511719 112.507812 73.585938 112.492188 C 74.179688 112.363281 74.765625 112.339844 75.363281 112.382812 C 75.394531 112.570312 75.421875 112.757812 75.453125 112.953125 C 75.425781 113.078125 75.394531 113.203125 75.363281 113.332031 C 75.121094 113.421875 74.882812 113.484375 74.640625 113.53125 C 74.480469 113.566406 74.324219 113.601562 74.167969 113.636719 C 74.082031 113.65625 73.996094 113.675781 73.910156 113.691406 C 70.28125 114.480469 66.6875 115.671875 63.109375 117.144531 C 62.933594 117.214844 62.933594 117.214844 62.757812 117.289062 C 62.472656 117.40625 62.1875 117.527344 61.90625 117.65625 C 61.832031 117.6875 61.757812 117.71875 61.683594 117.75 C 60.78125 118.175781 60.027344 119.1875 59.269531 120.238281 C 58.503906 121.28125 57.730469 122.285156 56.9375 123.238281 C 56.867188 123.320312 56.800781 123.402344 56.730469 123.488281 C 42.808594 140.273438 42.808594 140.273438 37.496094 139.238281 C 37.167969 139.046875 36.914062 138.792969 36.667969 138.285156 C 36.605469 137.347656 36.621094 136.792969 36.886719 136.011719 C 37.683594 134.054688 38.636719 132.835938 39.707031 131.617188 C 39.808594 131.503906 39.808594 131.503906 39.914062 131.382812 C 41.65625 129.382812 43.492188 127.820312 45.34375 126.308594 C 45.410156 126.257812 45.472656 126.207031 45.539062 126.152344 C 45.722656 126.003906 45.90625 125.851562 46.09375 125.703125 C 46.152344 125.65625 46.210938 125.609375 46.273438 125.558594 C 46.570312 125.320312 46.867188 125.09375 47.171875 124.886719 C 47.257812 124.824219 47.257812 124.824219 47.347656 124.761719 C 47.511719 124.648438 47.671875 124.539062 47.835938 124.433594 C 48.246094 124.042969 48.390625 123.402344 48.550781 122.554688 C 48.585938 122.382812 48.617188 122.210938 48.652344 122.03125 C 48.6875 121.84375 48.722656 121.65625 48.757812 121.464844 C 48.816406 121.171875 48.816406 121.171875 48.875 120.871094 C 48.953125 120.453125 49.035156 120.035156 49.113281 119.617188 C 49.320312 118.527344 49.53125 117.4375 49.742188 116.347656 C 49.800781 116.027344 49.800781 116.027344 49.863281 115.699219 C 50.179688 114.066406 50.5 112.441406 50.828125 110.820312 C 51.761719 106.292969 51.761719 106.292969 52.46875 101.601562 C 52.589844 100.605469 52.589844 100.605469 52.789062 100.191406 C 53.078125 100.167969 53.078125 100.167969 53.34375 100.191406 C 53.777344 104.136719 52.082031 109.75 51.347656 113.335938 C 50.882812 115.605469 50.425781 117.882812 49.980469 120.167969 C 49.933594 120.402344 49.933594 120.402344 49.886719 120.640625 C 49.71875 121.503906 49.550781 122.371094 49.382812 123.238281 C 49.484375 123.167969 49.589844 123.097656 49.695312 123.027344 C 51.570312 121.765625 53.445312 120.527344 55.347656 119.453125 C 55.421875 119.410156 55.496094 119.367188 55.574219 119.324219 C 56.371094 118.875 57.171875 118.445312 57.972656 118.046875 C 58.042969 118.015625 58.109375 117.980469 58.179688 117.945312 C 58.496094 117.789062 58.8125 117.632812 59.128906 117.488281 C 60.175781 116.976562 60.929688 115.964844 61.769531 114.605469 C 61.835938 114.5 61.902344 114.390625 61.972656 114.28125 C 62.765625 113.003906 63.539062 111.699219 64.28125 110.296875 C 64.460938 109.960938 64.644531 109.640625 64.832031 109.320312 C 65.792969 107.621094 66.828125 105.0625 67.027344 102.425781 C 67.058594 101.140625 66.980469 100.242188 66.59375 99.222656 C 65.054688 95.847656 62.386719 95.542969 60.285156 95.394531 C 54.011719 95.125 45.925781 98.242188 41.140625 107.300781 C 40.75 108.144531 40.46875 108.925781 40.425781 110.105469 C 40.453125 110.632812 40.5625 110.992188 40.742188 111.367188 C 41.339844 112.273438 42.078125 112.574219 42.800781 112.660156 C 42.976562 112.683594 42.976562 112.683594 43.15625 112.703125 C 43.339844 112.726562 43.527344 112.75 43.710938 112.769531 C 43.890625 112.792969 44.070312 112.816406 44.25 112.839844 C 44.359375 112.851562 44.464844 112.863281 44.574219 112.878906 C 44.855469 112.949219 45.070312 113.089844 45.328125 113.332031 C 45.28125 113.710938 45.28125 113.710938 45.234375 114.09375 C 41.140625 114.234375 41.140625 114.234375 39.921875 112.273438 C 39.597656 111.566406 39.496094 111.03125 39.484375 110.058594 C 39.507812 108.1875 40.015625 107.0625 40.636719 105.796875 C 41.144531 104.8125 41.695312 103.992188 42.289062 103.238281 C 42.355469 103.152344 42.425781 103.0625 42.492188 102.972656 C 47.4375 96.695312 53.875 94.058594 59.636719 94.058594 Z M 57.171875 119.828125 C 57.09375 119.875 57.015625 119.917969 56.933594 119.964844 C 56.675781 120.113281 56.421875 120.265625 56.164062 120.417969 C 55.988281 120.519531 55.808594 120.625 55.628906 120.730469 C 54.441406 121.425781 53.261719 122.160156 52.082031 122.929688 C 52.011719 122.972656 51.941406 123.019531 51.867188 123.066406 C 51.40625 123.367188 50.945312 123.679688 50.488281 124 C 50.417969 124.046875 50.351562 124.097656 50.28125 124.144531 C 50.074219 124.289062 49.871094 124.441406 49.667969 124.589844 C 49.605469 124.632812 49.542969 124.679688 49.480469 124.722656 C 49.011719 125.082031 48.847656 125.464844 48.621094 126.359375 C 48.503906 126.902344 48.382812 127.445312 48.265625 127.988281 C 48.203125 128.269531 48.203125 128.269531 48.136719 128.558594 C 48.078125 128.832031 48.078125 128.832031 48.015625 129.113281 C 47.980469 129.277344 47.945312 129.445312 47.90625 129.613281 C 47.816406 130.09375 47.765625 130.542969 47.722656 131.046875 C 48.175781 130.921875 48.554688 130.53125 48.960938 130.128906 C 49.035156 130.054688 49.113281 129.980469 49.1875 129.902344 C 49.433594 129.664062 49.679688 129.421875 49.921875 129.179688 C 50.007812 129.097656 50.089844 129.015625 50.175781 128.929688 C 52.988281 126.148438 55.664062 122.992188 58.320312 119.617188 C 57.902344 119.351562 57.574219 119.589844 57.171875 119.828125 Z M 47.003906 126.554688 C 46.941406 126.605469 46.878906 126.652344 46.8125 126.703125 C 46.609375 126.863281 46.402344 127.027344 46.199219 127.191406 C 46.128906 127.246094 46.058594 127.300781 45.984375 127.359375 C 44.664062 128.410156 43.378906 129.578125 42.105469 130.855469 C 42.011719 130.949219 41.921875 131.039062 41.824219 131.132812 C 39.324219 133.429688 39.324219 133.429688 37.589844 137.523438 C 37.75 137.933594 37.75 137.933594 37.945312 137.953125 C 38.460938 137.945312 38.933594 137.8125 39.4375 137.558594 C 39.558594 137.496094 39.558594 137.496094 39.683594 137.433594 C 42.273438 136.066406 44.84375 133.945312 47.261719 131.617188 C 47.21875 131.429688 47.21875 131.429688 47.171875 131.238281 C 47.097656 130.066406 47.332031 129.085938 47.539062 128.023438 C 47.59375 127.746094 47.59375 127.746094 47.644531 127.460938 C 47.730469 127.003906 47.820312 126.550781 47.90625 126.09375 C 47.574219 126.09375 47.3125 126.3125 47.003906 126.554688 Z M 47.003906 126.554688 "/>
<path style=" stroke:none;fill-rule:nonzero;fill:rgb(0%,0%,0%);fill-opacity:1;" d="M 21.097656 21.90625 C 21.207031 21.925781 21.207031 21.925781 21.316406 21.945312 C 22.273438 22.105469 23.226562 22.125 24.183594 22.117188 C 24.304688 22.117188 24.304688 22.117188 24.429688 22.117188 C 25.65625 22.117188 26.875 22.066406 28.101562 21.90625 C 28.101562 22.597656 28.101562 23.289062 28.101562 24 C 27.890625 24.066406 27.675781 24.128906 27.464844 24.191406 C 27.289062 24.242188 27.289062 24.242188 27.109375 24.296875 C 26.816406 24.371094 26.527344 24.390625 26.234375 24.386719 C 26.109375 24.386719 26.109375 24.386719 25.984375 24.382812 C 25.890625 24.382812 25.890625 24.382812 25.796875 24.382812 C 25.796875 24.601562 25.800781 24.820312 25.800781 25.046875 C 25.8125 28.015625 25.757812 30.976562 25.703125 33.945312 C 25.691406 34.65625 25.675781 35.371094 25.664062 36.085938 C 25.625 38.199219 25.589844 40.3125 25.550781 42.425781 C 25.519531 44.070312 25.488281 45.714844 25.460938 47.359375 C 25.445312 48.0625 25.433594 48.769531 25.421875 49.472656 C 25.386719 51.265625 25.359375 53.0625 25.335938 54.855469 C 25.332031 55.054688 25.332031 55.054688 25.332031 55.253906 C 25.320312 56.171875 25.3125 57.089844 25.304688 58.007812 C 25.300781 58.359375 25.300781 58.359375 25.296875 58.722656 C 25.292969 60.285156 25.375 61.335938 25.894531 62.535156 C 27.289062 64.191406 29.535156 64 31.046875 63.238281 C 32.074219 62.652344 32.742188 61.753906 33.296875 59.851562 C 33.621094 58.507812 33.820312 57.070312 33.996094 55.617188 C 34.359375 55.617188 34.726562 55.617188 35.101562 55.617188 C 35.042969 57.117188 34.921875 58.546875 34.761719 60.011719 C 34.738281 60.238281 34.714844 60.460938 34.6875 60.695312 C 34.460938 62.75 34.183594 64.78125 33.71875 66.667969 C 32.566406 66.714844 31.421875 66.644531 30.273438 66.5 C 30.171875 66.488281 30.171875 66.488281 30.066406 66.476562 C 29.433594 66.394531 28.796875 66.3125 28.160156 66.230469 C 26.636719 66.03125 25.113281 65.867188 23.585938 65.875 C 23.492188 65.875 23.492188 65.875 23.394531 65.875 C 22.382812 65.882812 21.371094 65.953125 20.359375 66.09375 C 20.355469 65.785156 20.351562 65.476562 20.347656 65.167969 C 20.347656 64.90625 20.347656 64.90625 20.34375 64.644531 C 20.359375 64.191406 20.359375 64.191406 20.546875 63.808594 C 21.050781 63.585938 21.582031 63.609375 22.097656 63.613281 C 22.203125 63.613281 22.3125 63.617188 22.421875 63.617188 C 22.542969 63.617188 22.542969 63.617188 22.664062 63.617188 C 22.722656 60.066406 22.78125 56.511719 22.839844 52.957031 C 22.867188 51.304688 22.894531 49.65625 22.921875 48.003906 C 22.945312 46.5625 22.96875 45.117188 22.992188 43.675781 C 23.003906 42.914062 23.015625 42.15625 23.03125 41.394531 C 23.054688 39.835938 23.082031 38.28125 23.105469 36.722656 C 23.117188 35.816406 23.132812 34.910156 23.148438 34.003906 C 23.160156 33.367188 23.171875 32.730469 23.179688 32.09375 C 23.1875 31.789062 23.191406 31.488281 23.199219 31.1875 C 23.304688 27.914062 23.304688 27.914062 22.757812 24.953125 C 22.222656 24.429688 21.679688 24.214844 21.097656 24 C 21.097656 23.308594 21.097656 22.617188 21.097656 21.90625 Z M 21.097656 21.90625 "/>
<path style=" stroke:none;fill-rule:nonzero;fill:rgb(0%,0%,0%);fill-opacity:1;" d="M 110.003906 38.09375 C 110.097656 38.167969 110.097656 38.167969 110.195312 38.242188 C 111.242188 39.167969 111.984375 41.113281 112.421875 43.226562 C 112.785156 45.265625 112.789062 47.1875 112.769531 49.332031 C 109.6875 49.953125 106.535156 49.359375 103.460938 48.761719 C 103.421875 52.699219 103.402344 56.089844 104.535156 59.421875 C 104.660156 59.808594 104.660156 59.808594 104.746094 60.214844 C 104.871094 60.667969 104.980469 60.753906 105.214844 60.953125 C 105.277344 61.027344 105.34375 61.101562 105.410156 61.179688 C 106.785156 62.695312 108.382812 62.933594 109.894531 62.191406 C 110.585938 61.75 111.21875 61.089844 111.855469 60.382812 C 112.15625 60.054688 112.460938 59.742188 112.769531 59.429688 C 113.132812 60.230469 113.132812 60.230469 113.140625 60.820312 C 112.992188 61.601562 112.71875 61.949219 112.394531 62.429688 C 112.328125 62.527344 112.261719 62.628906 112.191406 62.730469 C 110.183594 65.695312 108.105469 67.191406 105.617188 66.585938 C 104.457031 66.054688 103.445312 64.816406 102.632812 63.046875 C 102.566406 62.90625 102.503906 62.765625 102.4375 62.621094 C 101.203125 59.714844 100.871094 55.820312 100.960938 52.0625 C 101.113281 47.6875 102.070312 43.882812 103.570312 40.84375 C 104.019531 40.046875 104.515625 39.449219 105.027344 38.855469 C 105.09375 38.777344 105.160156 38.695312 105.226562 38.613281 C 106.539062 37.097656 108.621094 36.910156 110.003906 38.09375 Z M 104.78125 42 C 104.199219 43.414062 103.792969 45.023438 103.648438 46.855469 C 105.898438 46.855469 108.148438 46.855469 110.464844 46.855469 C 110.464844 44.578125 110.242188 42.871094 109.480469 41.183594 C 108.835938 39.941406 108.03125 39.554688 107.160156 39.589844 C 106.195312 39.726562 105.453125 40.566406 104.78125 42 Z M 104.78125 42 "/>
<path style=" stroke:none;fill-rule:nonzero;fill:rgb(0%,0%,0%);fill-opacity:1;" d="M 78.433594 37.464844 C 78.519531 37.460938 78.609375 37.457031 78.703125 37.453125 C 80.046875 37.453125 81.085938 38.40625 82.0625 40.292969 C 83.097656 42.585938 83.308594 45.640625 83.300781 48.664062 C 83.285156 49.144531 83.285156 49.144531 83.195312 49.332031 C 80.214844 50.261719 76.957031 49.339844 73.980469 48.761719 C 73.769531 52.757812 73.988281 56.601562 75.167969 59.914062 C 75.871094 61.597656 76.941406 62.324219 77.988281 62.519531 C 79.628906 62.71875 80.933594 61.980469 82.371094 60.382812 C 82.675781 60.054688 82.980469 59.742188 83.285156 59.429688 C 83.65625 60.5 83.65625 60.5 83.65625 61.144531 C 83.484375 61.46875 83.316406 61.75 83.128906 62.035156 C 83.078125 62.121094 83.023438 62.203125 82.96875 62.289062 C 80.894531 65.460938 78.738281 67.230469 76.140625 66.585938 C 74.972656 66.054688 73.980469 64.804688 73.152344 63.046875 C 73.074219 62.898438 73.074219 62.898438 73 62.75 C 71.777344 60.167969 71.46875 56.300781 71.472656 52.867188 C 71.5 48.28125 72.375 44.320312 73.949219 41.121094 C 75.191406 38.683594 76.726562 37.453125 78.433594 37.464844 Z M 75.078125 42.535156 C 74.625 43.855469 74.292969 45.25 74.164062 46.855469 C 76.414062 46.855469 78.664062 46.855469 80.984375 46.855469 C 80.882812 44.398438 80.769531 42.609375 79.878906 40.953125 C 79.21875 39.839844 78.4375 39.519531 77.601562 39.570312 C 76.558594 39.804688 75.746094 40.902344 75.078125 42.535156 Z M 75.078125 42.535156 "/>
<path style=" stroke:none;fill-rule:nonzero;fill:rgb(0%,0%,0%);fill-opacity:1;" d="M 90.105469 16.761719 C 90.09375 17.019531 90.09375 17.019531 90.085938 17.28125 C 89.707031 27.386719 89.390625 37.492188 89.183594 47.617188 C 89.179688 47.789062 89.175781 47.960938 89.171875 48.136719 C 89.109375 51.128906 89.082031 54.125 89.074219 57.117188 C 89.074219 57.4375 89.074219 57.757812 89.070312 58.082031 C 89.066406 59.652344 89.0625 61.140625 89.273438 62.667969 C 89.289062 62.867188 89.289062 62.867188 89.304688 63.070312 C 89.324219 63.1875 89.347656 63.308594 89.367188 63.429688 C 90.097656 64.144531 90.875 64.132812 91.667969 64.191406 C 91.667969 64.820312 91.667969 65.449219 91.667969 66.09375 C 91.585938 66.105469 91.5 66.113281 91.410156 66.121094 C 89.242188 66.328125 89.242188 66.328125 87.097656 66.9375 C 86.785156 67.046875 86.785156 67.046875 86.417969 67.046875 C 86.402344 65.480469 86.449219 63.929688 86.511719 62.371094 C 86.53125 61.9375 86.546875 61.507812 86.566406 61.074219 C 86.589844 60.457031 86.613281 59.839844 86.640625 59.222656 C 86.703125 57.601562 86.765625 55.984375 86.832031 54.363281 C 86.835938 54.203125 86.84375 54.039062 86.847656 53.875 C 87.011719 49.699219 87.140625 45.519531 87.246094 41.332031 C 87.253906 41.074219 87.253906 41.074219 87.261719 40.8125 C 87.355469 37.136719 87.4375 33.460938 87.488281 29.78125 C 87.492188 29.464844 87.496094 29.152344 87.503906 28.835938 C 87.632812 24.835938 87.632812 24.835938 87.0625 21.144531 C 86.554688 20.402344 85.984375 20.355469 85.375 20.273438 C 85.261719 20.257812 85.144531 20.242188 85.027344 20.226562 C 84.894531 20.207031 84.894531 20.207031 84.761719 20.191406 C 84.757812 19.910156 84.753906 19.628906 84.753906 19.34375 C 84.753906 19.1875 84.753906 19.03125 84.75 18.871094 C 84.761719 18.476562 84.761719 18.476562 84.851562 18.285156 C 84.976562 18.25 85.097656 18.222656 85.222656 18.203125 C 85.300781 18.191406 85.378906 18.175781 85.460938 18.164062 C 85.585938 18.140625 85.585938 18.140625 85.714844 18.117188 C 86.992188 17.882812 88.253906 17.519531 89.5 16.867188 C 89.734375 16.761719 89.734375 16.761719 90.105469 16.761719 Z M 90.105469 16.761719 "/>
<path style=" stroke:none;fill-rule:nonzero;fill:rgb(0%,0%,0%);fill-opacity:1;" d="M 65.78125 28 C 65.714844 30.21875 65.628906 32.4375 65.546875 34.65625 C 65.53125 34.992188 65.519531 35.324219 65.507812 35.660156 C 65.476562 36.472656 65.445312 37.285156 65.414062 38.09375 C 65.519531 38.078125 65.628906 38.0625 65.742188 38.042969 C 66.148438 37.976562 66.550781 37.914062 66.957031 37.851562 C 67.132812 37.824219 67.308594 37.796875 67.480469 37.769531 C 67.734375 37.726562 67.984375 37.6875 68.238281 37.648438 C 68.316406 37.636719 68.394531 37.625 68.472656 37.609375 C 68.867188 37.550781 69.253906 37.511719 69.652344 37.523438 C 69.558594 38.476562 69.558594 38.476562 69.003906 40.761719 C 67.757812 40.761719 66.511719 40.761719 65.226562 40.761719 C 65.203125 42.230469 65.203125 42.230469 65.175781 43.695312 C 65.160156 44.640625 65.140625 45.589844 65.113281 46.535156 C 65.050781 48.765625 65.023438 50.988281 65.023438 53.222656 C 65.019531 53.800781 65.019531 54.378906 65.015625 54.957031 C 65.007812 57.253906 65.007812 59.3125 65.597656 61.332031 C 65.597656 61.460938 65.597656 61.585938 65.597656 61.714844 C 66.371094 62.363281 67.109375 62.601562 67.917969 61.988281 C 68.535156 61.410156 69.078125 60.582031 69.464844 59.429688 C 69.730469 59.671875 69.945312 59.886719 70.109375 60.382812 C 70.101562 61.40625 69.78125 61.945312 69.449219 62.617188 C 69.390625 62.734375 69.335938 62.851562 69.273438 62.972656 C 68.105469 65.289062 66.78125 66.800781 65.140625 66.730469 C 64.492188 66.65625 63.988281 66.078125 63.535156 65.132812 C 62.773438 63.097656 62.808594 60.328125 62.804688 57.894531 C 62.804688 57.660156 62.804688 57.660156 62.804688 57.425781 C 62.800781 54.054688 62.902344 50.695312 63.011719 47.332031 C 63.019531 47.136719 63.019531 47.136719 63.023438 46.941406 C 63.050781 46.066406 63.082031 45.191406 63.113281 44.316406 C 63.121094 44.089844 63.128906 43.867188 63.136719 43.636719 C 63.171875 42.609375 63.214844 41.589844 63.292969 40.570312 C 63.167969 40.558594 63.167969 40.558594 63.035156 40.542969 C 62.222656 40.445312 61.425781 40.265625 60.621094 40 C 60.609375 38.523438 60.609375 38.523438 60.714844 38.09375 C 61.566406 38.09375 62.417969 38.09375 63.292969 38.09375 C 63.296875 37.46875 63.300781 36.839844 63.308594 36.191406 C 63.3125 35.585938 63.316406 34.980469 63.324219 34.371094 C 63.328125 33.949219 63.328125 33.527344 63.332031 33.105469 C 63.335938 32.5 63.34375 31.894531 63.347656 31.289062 C 63.347656 31.097656 63.351562 30.90625 63.351562 30.710938 C 63.351562 30.535156 63.355469 30.363281 63.355469 30.179688 C 63.359375 30.027344 63.359375 29.871094 63.359375 29.710938 C 63.386719 29.332031 63.386719 29.332031 63.570312 28.953125 C 63.785156 28.820312 63.785156 28.820312 64.046875 28.707031 C 64.144531 28.664062 64.238281 28.625 64.335938 28.582031 C 64.484375 28.515625 64.484375 28.515625 64.636719 28.453125 C 64.734375 28.410156 64.835938 28.363281 64.9375 28.320312 C 65.667969 28 65.667969 28 65.78125 28 Z M 65.78125 28 "/>
<path style=" stroke:none;fill-rule:nonzero;fill:rgb(0%,0%,0%);fill-opacity:1;" d="M 119.492188 37.523438 C 119.449219 38.773438 119.378906 39.988281 119.253906 41.21875 C 119.210938 41.769531 119.210938 42.296875 119.21875 42.855469 C 119.269531 42.753906 119.320312 42.652344 119.375 42.550781 C 120.734375 39.9375 122.347656 37.402344 124.28125 37.476562 C 124.730469 37.550781 124.980469 37.804688 125.285156 38.476562 C 125.476562 39.519531 125.492188 40.59375 125.296875 41.640625 C 125.117188 42.328125 124.929688 42.890625 124.652344 43.429688 C 124.417969 43.207031 124.222656 42.957031 124.007812 42.65625 C 123.421875 41.875 122.75 41.96875 122.074219 42.09375 C 121.257812 42.523438 120.539062 43.363281 119.863281 44.382812 C 119.769531 44.511719 119.675781 44.644531 119.578125 44.777344 C 119.347656 45.179688 119.265625 45.457031 119.222656 46.074219 C 119.210938 46.367188 119.199219 46.664062 119.195312 46.957031 C 119.1875 47.117188 119.183594 47.277344 119.179688 47.441406 C 119.160156 47.96875 119.148438 48.496094 119.136719 49.023438 C 119.125 49.390625 119.117188 49.757812 119.105469 50.121094 C 119.035156 52.625 119.007812 55.125 119.003906 57.632812 C 119.003906 57.785156 119.003906 57.941406 119.003906 58.101562 C 118.945312 60.925781 118.945312 60.925781 119.4375 63.441406 C 119.757812 63.933594 120.03125 64.015625 120.425781 64.058594 C 120.492188 64.066406 120.5625 64.078125 120.636719 64.085938 C 120.707031 64.09375 120.777344 64.097656 120.851562 64.105469 C 120.960938 64.121094 120.960938 64.121094 121.074219 64.132812 C 121.253906 64.152344 121.433594 64.171875 121.613281 64.191406 C 121.613281 64.820312 121.613281 65.449219 121.613281 66.09375 C 121.421875 66.105469 121.421875 66.105469 121.226562 66.117188 C 119.980469 66.199219 118.757812 66.441406 117.523438 66.789062 C 117.167969 66.886719 116.808594 66.96875 116.453125 67.046875 C 116.441406 65.9375 116.480469 64.878906 116.546875 63.777344 C 116.566406 63.4375 116.585938 63.097656 116.609375 62.757812 C 116.617188 62.582031 116.628906 62.40625 116.640625 62.226562 C 116.921875 57.46875 117.109375 52.757812 117.125 47.964844 C 117.128906 47.808594 117.128906 47.652344 117.128906 47.492188 C 117.160156 44.652344 117.160156 44.652344 116.625 42.105469 C 115.960938 41.121094 115.222656 41.035156 114.425781 40.953125 C 114.425781 40.324219 114.425781 39.695312 114.425781 39.046875 C 114.5 39.035156 114.574219 39.023438 114.648438 39.011719 C 116.144531 38.75 117.585938 38.402344 119.042969 37.601562 C 119.21875 37.523438 119.21875 37.523438 119.492188 37.523438 Z M 119.492188 37.523438 "/>
<path style=" stroke:none;fill-rule:nonzero;fill:rgb(0%,0%,0%);fill-opacity:1;" d="M 14.371094 31.808594 C 14.644531 31.808594 14.917969 31.808594 15.203125 31.808594 C 15.203125 48.402344 15.203125 65 15.203125 82.09375 C 17.964844 82.179688 17.964844 82.179688 20.785156 82.261719 C 21.9375 82.296875 23.089844 82.332031 24.242188 82.367188 C 24.386719 82.371094 24.53125 82.375 24.679688 82.378906 C 25.886719 82.417969 25.886719 82.417969 26.484375 82.433594 C 27.222656 82.457031 27.960938 82.480469 28.699219 82.503906 C 28.804688 82.503906 28.804688 82.503906 28.914062 82.507812 C 29.058594 82.511719 29.203125 82.519531 29.34375 82.523438 C 30.648438 82.5625 31.949219 82.601562 33.25 82.640625 C 33.894531 82.664062 34.539062 82.683594 35.183594 82.703125 C 35.785156 82.71875 36.390625 82.738281 36.992188 82.757812 C 37.214844 82.765625 37.433594 82.773438 37.65625 82.777344 C 37.957031 82.785156 38.257812 82.796875 38.554688 82.804688 C 38.644531 82.808594 38.734375 82.8125 38.824219 82.8125 C 39.421875 82.835938 39.421875 82.835938 39.523438 83.046875 C 39.53125 83.367188 39.53125 83.691406 39.53125 84.011719 C 39.527344 84.273438 39.527344 84.273438 39.527344 84.542969 C 39.527344 84.746094 39.527344 84.746094 39.523438 84.953125 C 37.980469 84.960938 36.4375 84.9375 34.894531 84.882812 C 34.675781 84.875 34.453125 84.867188 34.230469 84.859375 C 33.636719 84.839844 33.042969 84.820312 32.449219 84.796875 C 31.886719 84.777344 31.328125 84.761719 30.765625 84.742188 C 29.660156 84.703125 28.550781 84.664062 27.441406 84.625 C 26.367188 84.589844 25.292969 84.554688 24.21875 84.515625 C 24.117188 84.511719 24.117188 84.511719 24.015625 84.507812 C 23.683594 84.496094 23.347656 84.484375 23.015625 84.476562 C 20.257812 84.378906 17.5 84.285156 14.742188 84.191406 C 14.742188 83.875 14.742188 83.5625 14.742188 83.238281 C 14.621094 83.238281 14.496094 83.238281 14.371094 83.238281 C 14.371094 66.265625 14.371094 49.296875 14.371094 31.808594 Z M 14.371094 31.808594 "/>
<path style=" stroke:none;fill-rule:nonzero;fill:rgb(95.294118%,7.843138%,7.843138%);fill-opacity:1;" d="M 104.476562 5.523438 C 107.175781 5.507812 109.878906 5.539062 112.578125 5.632812 C 113.046875 5.648438 113.519531 5.664062 113.988281 5.679688 C 114.773438 5.703125 115.558594 5.730469 116.34375 5.757812 C 117.246094 5.789062 118.144531 5.816406 119.042969 5.847656 C 119.921875 5.875 120.800781 5.902344 121.679688 5.933594 C 122.050781 5.945312 122.417969 5.957031 122.785156 5.96875 C 124.945312 6.039062 127.101562 6.132812 129.257812 6.285156 C 129.257812 6.539062 129.257812 6.789062 129.257812 7.046875 C 129.378906 7.046875 129.503906 7.046875 129.628906 7.046875 C 129.628906 24.019531 129.628906 40.992188 129.628906 58.476562 C 129.355469 58.476562 129.082031 58.476562 128.796875 58.476562 C 128.796875 41.882812 128.796875 25.289062 128.796875 8.191406 C 127.21875 8.191406 125.636719 8.191406 124.007812 8.191406 C 122.777344 8.160156 121.550781 8.132812 120.320312 8.089844 C 119.761719 8.070312 119.199219 8.054688 118.640625 8.035156 C 117.851562 8.007812 117.066406 7.984375 116.277344 7.957031 C 115.375 7.925781 114.472656 7.898438 113.570312 7.867188 C 112.6875 7.839844 111.804688 7.8125 110.921875 7.78125 C 110.554688 7.769531 110.183594 7.757812 109.8125 7.746094 C 106.144531 7.628906 106.144531 7.628906 104.476562 7.429688 C 104.476562 6.800781 104.476562 6.171875 104.476562 5.523438 Z M 104.476562 5.523438 "/>
<path style=" stroke:none;fill-rule:nonzero;fill:rgb(0%,0%,0%);fill-opacity:1;" d="M 97.566406 37.523438 C 97.558594 37.640625 97.550781 37.761719 97.546875 37.882812 C 97.394531 40.464844 97.257812 43.050781 97.140625 45.644531 C 97.128906 45.886719 97.117188 46.132812 97.105469 46.386719 C 97.074219 47.113281 97.042969 47.84375 97.011719 48.570312 C 97.003906 48.796875 96.996094 49.023438 96.984375 49.257812 C 96.90625 51.46875 96.902344 53.679688 96.898438 55.894531 C 96.898438 56.550781 96.894531 57.207031 96.890625 57.863281 C 96.890625 58.285156 96.890625 58.707031 96.890625 59.128906 C 96.890625 59.324219 96.890625 59.515625 96.886719 59.714844 C 96.890625 60.929688 96.929688 62.132812 97.199219 63.238281 C 97.683594 64.136719 98.238281 64.058594 98.859375 64.117188 C 99.398438 64.171875 99.398438 64.171875 99.5 64.382812 C 99.523438 65.625 99.523438 65.625 99.410156 66.09375 C 99.144531 66.164062 99.144531 66.164062 98.792969 66.195312 C 98.664062 66.207031 98.535156 66.222656 98.402344 66.234375 C 98.335938 66.242188 98.265625 66.246094 98.195312 66.253906 C 97.183594 66.347656 96.183594 66.449219 95.1875 66.878906 C 94.839844 67.027344 94.59375 67.019531 94.25 66.855469 C 94.261719 66.632812 94.277344 66.40625 94.289062 66.171875 C 94.601562 60.695312 94.867188 55.25 94.957031 49.738281 C 94.960938 49.601562 94.960938 49.46875 94.964844 49.328125 C 95.101562 45.644531 95.101562 45.644531 94.527344 42.285156 C 93.992188 41.34375 93.488281 41.136719 92.796875 41.035156 C 92.691406 41.019531 92.582031 41.003906 92.472656 40.988281 C 92.390625 40.976562 92.308594 40.964844 92.222656 40.953125 C 92.222656 40.324219 92.222656 39.695312 92.222656 39.046875 C 92.296875 39.035156 92.367188 39.023438 92.441406 39.011719 C 93.960938 38.746094 95.421875 38.382812 96.902344 37.601562 C 97.128906 37.515625 97.335938 37.511719 97.566406 37.523438 Z M 97.566406 37.523438 "/>
<path style=" stroke:none;fill-rule:nonzero;fill:rgb(0%,0%,0%);fill-opacity:1;" d="M 39.742188 17.300781 C 40.273438 18.085938 40.480469 19.296875 40.628906 20.570312 C 40.804688 23.652344 40.316406 26.675781 39.433594 29.144531 C 38.851562 30.570312 38.074219 32.441406 37.222656 33.144531 C 36.945312 32.953125 36.945312 32.953125 36.835938 32.601562 C 36.789062 32.390625 36.789062 32.390625 36.742188 32.179688 C 36.710938 32.039062 36.679688 31.898438 36.648438 31.753906 C 36.625 31.648438 36.601562 31.539062 36.574219 31.429688 C 36.640625 31.320312 36.710938 31.210938 36.777344 31.101562 C 37.710938 29.5625 38.417969 28.164062 38.644531 25.632812 C 38.675781 24.34375 38.480469 23.058594 38.066406 22.085938 C 37.695312 21.386719 37.296875 20.859375 36.851562 20.382812 C 36.898438 19.015625 37.042969 18.230469 37.542969 17.273438 C 38.175781 16.390625 39.097656 16.515625 39.742188 17.300781 Z M 39.742188 17.300781 "/>
<path style=" stroke:none;fill-rule:nonzero;fill:rgb(0%,0%,0%);fill-opacity:1;" d="M 65.308594 119.570312 C 65.429688 119.5625 65.429688 119.5625 65.550781 119.554688 C 65.828125 119.632812 65.949219 119.789062 66.148438 120.191406 C 66.171875 120.703125 66.171875 120.703125 66.148438 121.144531 C 65.988281 121.273438 65.988281 121.273438 65.78125 121.332031 C 65.65625 121.148438 65.535156 120.957031 65.414062 120.761719 C 65.320312 120.824219 65.230469 120.886719 65.136719 120.953125 C 65.117188 121.933594 65.164062 122.457031 65.320312 123.429688 C 65.929688 122.988281 66.535156 122.546875 67.164062 122.09375 C 67.207031 122.566406 67.207031 122.566406 67.253906 123.046875 C 66.765625 123.554688 66.273438 124.0625 65.78125 124.570312 C 65.804688 124.808594 65.804688 124.808594 65.828125 125.046875 C 65.957031 126.90625 65.957031 126.90625 65.742188 127.773438 C 65.414062 128.347656 65.085938 128.542969 64.675781 128.761719 C 64.601562 128.804688 64.523438 128.847656 64.445312 128.894531 C 63.945312 129.023438 63.460938 129.144531 63.015625 128.570312 C 62.878906 127.996094 62.910156 127.492188 62.925781 126.855469 C 62.984375 126.667969 63.046875 126.480469 63.109375 126.285156 C 63.058594 126.316406 63.007812 126.347656 62.957031 126.378906 C 62.222656 126.714844 61.621094 126.539062 60.992188 125.714844 C 60.820312 125.007812 60.859375 124.203125 60.898438 123.429688 C 61.160156 122.292969 61.625 121.429688 62.171875 120.882812 C 62.695312 120.667969 63.207031 120.515625 63.664062 121.144531 C 63.726562 122.003906 63.695312 122.375 63.460938 123.105469 C 63.144531 123.734375 62.914062 123.976562 62.472656 124.039062 C 62.386719 124.03125 62.296875 124.027344 62.207031 124.023438 C 62.070312 124.019531 62.070312 124.019531 61.933594 124.011719 C 61.863281 124.007812 61.796875 124.003906 61.726562 124 C 61.757812 124.3125 61.789062 124.628906 61.820312 124.953125 C 62.613281 125.269531 63.101562 124.945312 63.792969 124.113281 C 64.011719 123.785156 64.160156 123.519531 64.308594 123.046875 C 64.34375 122.445312 64.332031 121.890625 64.308594 121.285156 C 64.308594 120.761719 64.308594 120.761719 64.480469 120.15625 C 64.769531 119.644531 64.9375 119.585938 65.308594 119.570312 Z M 62.097656 122.476562 C 62.097656 122.601562 62.097656 122.726562 62.097656 122.855469 C 62.414062 122.824219 62.414062 122.824219 62.742188 122.667969 C 62.878906 122.296875 62.878906 122.296875 62.925781 121.90625 C 62.585938 121.90625 62.394531 122.148438 62.097656 122.476562 Z M 64.769531 125.523438 C 64.535156 125.777344 64.535156 125.777344 64.300781 126.144531 C 64.21875 126.261719 64.140625 126.378906 64.054688 126.503906 C 63.828125 126.851562 63.828125 126.851562 63.664062 127.429688 C 64.277344 127.496094 64.277344 127.496094 64.871094 127.214844 C 65.074219 126.867188 65.074219 126.867188 65.074219 126.25 C 65.0625 126.074219 65.054688 125.894531 65.042969 125.714844 C 64.953125 125.652344 64.863281 125.589844 64.769531 125.523438 Z M 64.769531 125.523438 "/>
<path style=" stroke:none;fill-rule:nonzero;fill:rgb(0%,0%,0%);fill-opacity:1;" d="M 96.921875 23.238281 C 97.371094 23.675781 97.617188 24.230469 97.84375 25.144531 C 98.015625 26.546875 97.917969 27.738281 97.589844 29 C 97.296875 29.738281 97.0625 30.214844 96.589844 30.359375 C 96.007812 30.410156 95.636719 30.265625 95.171875 29.523438 C 94.769531 28.421875 94.746094 27.242188 94.800781 25.90625 C 94.96875 24.800781 95.222656 24.015625 95.707031 23.40625 C 96.097656 23.078125 96.507812 23.140625 96.921875 23.238281 Z M 96.921875 23.238281 "/>
</g>
</svg>
